<svg xmlns="http://www.w3.org/2000/svg" xmlns:xlink="http://www.w3.org/1999/xlink" viewBox="0 0 211.94 213.08"><defs><style>.cls-1,.cls-20,.cls-21,.cls-22,.cls-23,.cls-24,.cls-26,.cls-27,.cls-28,.cls-29,.cls-3,.cls-30,.cls-31,.cls-32,.cls-4,.cls-5{fill:none;}.cls-2,.cls-6{fill:#231f20;}.cls-20,.cls-21,.cls-22,.cls-23,.cls-24,.cls-25,.cls-26,.cls-27,.cls-28,.cls-29,.cls-3,.cls-30,.cls-31,.cls-32,.cls-4,.cls-5{stroke:#231f20;}.cls-28,.cls-29,.cls-3,.cls-30,.cls-31,.cls-32{stroke-linecap:round;}.cls-3,.cls-4{stroke-linejoin:round;}.cls-27,.cls-3,.cls-4,.cls-5{stroke-width:0.25px;}.cls-22,.cls-3{stroke-dasharray:1.5 0.5;}.cls-6{stroke:#7a7a7a;stroke-width:0.35px;}.cls-7{fill:#f4f4f4;}.cls-8{fill:#9555a5;}.cls-9{fill:#f2f2f2;}.cls-10{fill:#f7f7f7;}.cls-11{fill:#e6e6e6;}.cls-12{fill:#999;}.cls-13{fill:#b3b3b3;}.cls-14{fill:gray;}.cls-15{fill:#666;}.cls-16{fill:#1a1a1a;}.cls-17{fill:#4d4d4d;}.cls-18{fill:#333;}.cls-19{fill:#ccc;}.cls-20,.cls-23{stroke-width:0.75px;}.cls-21,.cls-26,.cls-28,.cls-29,.cls-30,.cls-31,.cls-32{stroke-width:0.5px;}.cls-22{stroke-width:0.24px;}.cls-23,.cls-26,.cls-27{stroke-miterlimit:10;}.cls-24{stroke-width:0.25px;stroke-dasharray:1.53 0.51;}.cls-25{fill:url(#Mezzotint_Dot);}.cls-29{stroke-dasharray:2.82 1.88;}.cls-30{stroke-dasharray:2.98 1.99;}.cls-31{stroke-dasharray:3.25 2.17;}.cls-32{stroke-dasharray:3.65 2.44;}</style><pattern id="Mezzotint_Dot" data-name="Mezzotint Dot" width="91.13" height="91.12" patternTransform="translate(99.73 56.3) scale(0.1)" patternUnits="userSpaceOnUse" viewBox="0 0 91.13 91.13"><rect class="cls-1" width="91.13" height="91.12"/><path class="cls-2" d="M79.1,93.77a1.67,1.67,0,0,1-1.19-.5,1.66,1.66,0,0,1-.5-1.19,1.7,1.7,0,0,1,.5-1.2,1.76,1.76,0,0,1,2.38,0,1.7,1.7,0,0,1,.5,1.2,1.67,1.67,0,0,1-.5,1.19A1.7,1.7,0,0,1,79.1,93.77Z"/><path class="cls-2" d="M45.5,94.44a1.69,1.69,0,0,1-1.69-1.69,1.67,1.67,0,0,1,.5-1.19,1.73,1.73,0,0,1,2.38,0,1.69,1.69,0,0,1-1.19,2.88Z"/><path class="cls-2" d="M92.71,16.56a1.68,1.68,0,0,1-1.19-2.88,1.75,1.75,0,0,1,2.39,0,1.71,1.71,0,0,1,.49,1.19,1.67,1.67,0,0,1-.5,1.19A1.66,1.66,0,0,1,92.71,16.56Z"/><path class="cls-2" d="M92.08,42.82a1.69,1.69,0,0,1-1.19-.49,1.71,1.71,0,0,1-.5-1.2,1.67,1.67,0,0,1,.5-1.19,1.73,1.73,0,0,1,2.38,0,1.69,1.69,0,0,1-1.19,2.88Z"/><path class="cls-2" d="M91.51,55.5a.88.88,0,0,1-.63-.26.88.88,0,0,1,0-1.23.9.9,0,0,1,1.24,0,.83.83,0,0,1,.26.61.85.85,0,0,1-.26.62A.87.87,0,0,1,91.51,55.5Z"/><path class="cls-2" d="M57.27,88a2.53,2.53,0,0,1-1.79-4.32,2.62,2.62,0,0,1,3.58,0A2.53,2.53,0,0,1,57.27,88Z"/><path class="cls-2" d="M24.25,76.91a2.51,2.51,0,0,1-1.79-.75,2.53,2.53,0,0,1,0-3.58,2.62,2.62,0,0,1,3.58,0,2.53,2.53,0,0,1,0,3.58A2.51,2.51,0,0,1,24.25,76.91Z"/><path class="cls-2" d="M72.14,77.52a2.53,2.53,0,0,1-1.79-4.32,2.61,2.61,0,0,1,3.58,0A2.54,2.54,0,0,1,74.67,75a2.53,2.53,0,0,1-2.53,2.53Z"/><path class="cls-2" d="M75,50.94a2.53,2.53,0,0,1-1.79-4.32,2.62,2.62,0,0,1,3.58,0A2.53,2.53,0,0,1,75,50.94Z"/><path class="cls-2" d="M57.9,34.49a2.51,2.51,0,0,1-1.79-.75,2.52,2.52,0,0,1,0-3.57,2.61,2.61,0,0,1,3.58,0,2.52,2.52,0,0,1,0,3.57A2.51,2.51,0,0,1,57.9,34.49Z"/><path class="cls-2" d="M13.6,39.23a2.58,2.58,0,0,1-1.79-.74,2.54,2.54,0,0,1-.74-1.79,2.58,2.58,0,0,1,.74-1.79,2.62,2.62,0,0,1,3.58,0,2.51,2.51,0,0,1,0,3.58A2.54,2.54,0,0,1,13.6,39.23Z"/><path class="cls-2" d="M18.35,57A2,2,0,0,1,17,53.66a2,2,0,0,1,2.78,0A2,2,0,0,1,18.35,57Z"/><path class="cls-2" d="M32.91,50.38A2,2,0,0,1,31.51,47a2,2,0,0,1,2.79,0,2,2,0,0,1-1.39,3.36Z"/><path class="cls-2" d="M23.1,22.15a2.54,2.54,0,0,1-2.54-2.53,2.51,2.51,0,0,1,.75-1.79,2.6,2.6,0,0,1,3.58,0,2.53,2.53,0,0,1,0,3.58A2.58,2.58,0,0,1,23.1,22.15Z"/><path class="cls-2" d="M32,36.14a2,2,0,0,1-1.4-3.36,2.05,2.05,0,0,1,2.79,0A2,2,0,0,1,32,36.14Z"/><path class="cls-2" d="M48.73,65.18a2.53,2.53,0,0,1-1.79-4.32,2.6,2.6,0,0,1,3.58,0,2.53,2.53,0,0,1,0,3.58A2.58,2.58,0,0,1,48.73,65.18Z"/><path class="cls-2" d="M57.9,50.94a2.53,2.53,0,0,1-1.79-4.32,2.62,2.62,0,0,1,3.58,0,2.53,2.53,0,0,1-1.79,4.32Z"/><path class="cls-2" d="M48.5,28.9a2.53,2.53,0,0,1-1.79-4.32,2.62,2.62,0,0,1,3.58,0A2.53,2.53,0,0,1,48.5,28.9Z"/><path class="cls-2" d="M34.8,24.68a2.53,2.53,0,0,1-2.53-2.53A2.54,2.54,0,0,1,33,20.36a2.6,2.6,0,0,1,3.58,0,2.53,2.53,0,0,1-1.79,4.32Z"/><path class="cls-2" d="M36.07,11.39a2.53,2.53,0,0,1-1.79-4.32,2.62,2.62,0,0,1,3.58,0,2.53,2.53,0,0,1-1.79,4.32Z"/><path class="cls-2" d="M57.58,7.91a2.53,2.53,0,0,1-1.79-4.32,2.62,2.62,0,0,1,3.58,0,2.53,2.53,0,0,1-1.79,4.32Z"/><path class="cls-2" d="M54.42,18.67a2.53,2.53,0,0,1-1.79-4.32,2.61,2.61,0,0,1,3.58,0,2.54,2.54,0,0,1-1.79,4.33Z"/><path class="cls-2" d="M80.68,9.81a2.53,2.53,0,0,1-1.79-4.32,2.62,2.62,0,0,1,3.58,0,2.51,2.51,0,0,1,.75,1.79,2.54,2.54,0,0,1-2.54,2.53Z"/><path class="cls-2" d="M68.66,22.78a2.53,2.53,0,0,1-1.79-4.32,2.61,2.61,0,0,1,3.58,0,2.53,2.53,0,0,1-1.79,4.32Z"/><path class="cls-2" d="M79.42,33.22a2.53,2.53,0,0,1-1.79-4.32,2.62,2.62,0,0,1,3.58,0,2.53,2.53,0,0,1-1.79,4.32Z"/><path class="cls-2" d="M84.48,65.18a2.53,2.53,0,0,1-1.79-4.32,2.6,2.6,0,0,1,3.58,0A2.54,2.54,0,0,1,87,62.65a2.53,2.53,0,0,1-2.53,2.53Z"/><path class="cls-2" d="M65.81,64.23A2.53,2.53,0,0,1,64,59.91a2.61,2.61,0,0,1,3.58,0,2.53,2.53,0,0,1-1.79,4.32Z"/><path class="cls-2" d="M38.28,85.11a2.58,2.58,0,0,1-1.79-.74,2.53,2.53,0,0,1,0-3.58,2.62,2.62,0,0,1,3.58,0,2.53,2.53,0,0,1-1.79,4.32Z"/><path class="cls-2" d="M37.65,62a2.53,2.53,0,0,1-1.79-4.32,2.62,2.62,0,0,1,3.58,0,2.58,2.58,0,0,1,.74,1.79A2.53,2.53,0,0,1,37.65,62Z"/><path class="cls-2" d="M11.39,69.92a2.53,2.53,0,0,1-2.53-2.53A2.58,2.58,0,0,1,9.6,65.6a2.62,2.62,0,0,1,3.58,0,2.58,2.58,0,0,1,.74,1.79,2.53,2.53,0,0,1-2.53,2.53Z"/><path class="cls-2" d="M9.17,53.29a1.43,1.43,0,0,1-1-.4,1.41,1.41,0,1,1,2.4-1,1.41,1.41,0,0,1-.41,1A1.39,1.39,0,0,1,9.17,53.29Z"/><path class="cls-2" d="M4.74,31A2.52,2.52,0,0,1,3,26.69a2.6,2.6,0,0,1,3.57,0A2.54,2.54,0,0,1,4.74,31Z"/><path class="cls-2" d="M5.69,10.76A2.54,2.54,0,0,1,3.16,8.22,2.58,2.58,0,0,1,3.9,6.43a2.62,2.62,0,0,1,3.58,0,2.58,2.58,0,0,1,.74,1.79A2.54,2.54,0,0,1,7.48,10,2.51,2.51,0,0,1,5.69,10.76Z"/><path class="cls-2" d="M13,19.93a2.53,2.53,0,0,1-1.79-4.32,2.62,2.62,0,0,1,3.58,0A2.53,2.53,0,0,1,13,19.93Z"/><path class="cls-2" d="M9.49,84.16A2.53,2.53,0,0,1,7.7,79.84a2.62,2.62,0,0,1,3.58,0,2.53,2.53,0,0,1-1.79,4.32Z"/><path class="cls-2" d="M25.63,88.91a2.53,2.53,0,0,1-1.79-4.32,2.6,2.6,0,0,1,3.58,0,2.53,2.53,0,0,1-1.79,4.32Z"/><path class="cls-2" d="M33.25,73.41a2.54,2.54,0,0,1-1.79-4.33,2.62,2.62,0,0,1,3.58,0,2.54,2.54,0,0,1-1.79,4.33Z"/><path class="cls-2" d="M24.36,44.61a2.53,2.53,0,0,1-1.79-4.32,2.62,2.62,0,0,1,3.58,0,2.53,2.53,0,0,1-1.79,4.32Z"/><path class="cls-2" d="M22.78,31A2.51,2.51,0,0,1,21,30.26a2.54,2.54,0,0,1-.74-1.78,2.59,2.59,0,0,1,.74-1.8,2.62,2.62,0,0,1,3.58,0,2.59,2.59,0,0,1,.74,1.8,2.54,2.54,0,0,1-.74,1.78A2.51,2.51,0,0,1,22.78,31Z"/><path class="cls-2" d="M69,39.87a2.55,2.55,0,0,1-1.79-.75,2.51,2.51,0,0,1-.75-1.79,2.55,2.55,0,0,1,.75-1.79,2.61,2.61,0,0,1,3.57,0,2.55,2.55,0,0,1,.75,1.79A2.56,2.56,0,0,1,69,39.87Z"/><path class="cls-2" d="M84.8,86.69A2.54,2.54,0,0,1,83,86a2.5,2.5,0,0,1-.74-1.79A2.54,2.54,0,0,1,83,82.37a2.61,2.61,0,0,1,3.57,0,2.52,2.52,0,0,1,0,3.58A2.58,2.58,0,0,1,84.8,86.69Z"/><path class="cls-2" d="M50.94,75.3A2.53,2.53,0,0,1,49.15,71a2.62,2.62,0,0,1,3.58,0,2.53,2.53,0,0,1-1.79,4.32Z"/><path class="cls-2" d="M21.2,13.61a2.51,2.51,0,0,1-1.79-.75,2.54,2.54,0,0,1-.74-1.79,2.58,2.58,0,0,1,.74-1.79,2.62,2.62,0,0,1,3.58,0,2.58,2.58,0,0,1,.74,1.79,2.54,2.54,0,0,1-2.53,2.54Z"/><path class="cls-2" d="M2.53,21.2a2.54,2.54,0,0,1-1.79-.74A2.58,2.58,0,0,1,0,18.67a2.54,2.54,0,0,1,.74-1.79,2.6,2.6,0,0,1,3.58,0,2.54,2.54,0,0,1,.74,1.79,2.58,2.58,0,0,1-.74,1.79A2.54,2.54,0,0,1,2.53,21.2Z"/><path class="cls-2" d="M43.35,17.72A2.54,2.54,0,0,1,41.56,17a2.53,2.53,0,0,1,0-3.58,2.6,2.6,0,0,1,3.57,0,2.51,2.51,0,0,1,.75,1.79,2.53,2.53,0,0,1-2.53,2.53Z"/><path class="cls-2" d="M46.51,8.86a2.53,2.53,0,0,1-1.79-4.32,2.61,2.61,0,0,1,3.58,0,2.53,2.53,0,0,1-1.79,4.32Z"/><path class="cls-2" d="M30.69,3.62a1.41,1.41,0,0,1-1-.41,1.44,1.44,0,0,1-.42-1,1.43,1.43,0,0,1,.41-1,1.44,1.44,0,0,1,2,0,1.39,1.39,0,0,1,0,2A1.41,1.41,0,0,1,30.69,3.62Z"/><path class="cls-2" d="M69.93,6a2.54,2.54,0,0,1-1.79-.74,2.51,2.51,0,0,1,0-3.58,2.62,2.62,0,0,1,3.58,0,2.53,2.53,0,0,1,0,3.58A2.58,2.58,0,0,1,69.93,6Z"/><path class="cls-2" d="M65.81,13.92A2.53,2.53,0,0,1,64,9.6a2.62,2.62,0,0,1,3.58,0,2.53,2.53,0,0,1-1.79,4.32Z"/><path class="cls-2" d="M80.68,20.25a2.53,2.53,0,0,1-2.53-2.53,2.54,2.54,0,0,1,.74-1.79,2.6,2.6,0,0,1,3.58,0,2.51,2.51,0,0,1,.75,1.79,2.54,2.54,0,0,1-2.54,2.53Z"/><path class="cls-2" d="M82.26,42.71a2.53,2.53,0,0,1-1.79-4.32,2.62,2.62,0,0,1,3.58,0,2.53,2.53,0,0,1-1.79,4.32Z"/><path class="cls-2" d="M10.76,5.69A2.53,2.53,0,0,1,8.23,3.16,2.58,2.58,0,0,1,9,1.37a2.61,2.61,0,0,1,3.57,0,2.55,2.55,0,0,1,.75,1.79A2.51,2.51,0,0,1,12.54,5,2.54,2.54,0,0,1,10.76,5.69Z"/><path class="cls-2" d="M13.92,12.65a2.53,2.53,0,0,1-2.53-2.53,2.58,2.58,0,0,1,.74-1.79,2.62,2.62,0,0,1,3.58,0,2.58,2.58,0,0,1,.74,1.79,2.53,2.53,0,0,1-2.53,2.53Z"/><path class="cls-2" d="M28.16,9.17a2.53,2.53,0,0,1-1.79-4.32,2.62,2.62,0,0,1,3.58,0,2.53,2.53,0,0,1-1.79,4.32Z"/><path class="cls-2" d="M30.37,17.72a2.53,2.53,0,0,1-2.53-2.53,2.54,2.54,0,0,1,.74-1.79,2.6,2.6,0,0,1,3.58,0,2.53,2.53,0,0,1-1.79,4.32Z"/><path class="cls-2" d="M41.45,5.38a2.54,2.54,0,0,1-1.79-.74,2.58,2.58,0,0,1-.74-1.79,2.54,2.54,0,0,1,.74-1.79,2.6,2.6,0,0,1,3.58,0,2.53,2.53,0,0,1,0,3.58A2.56,2.56,0,0,1,41.45,5.38Z"/><path class="cls-2" d="M61.07,24.68a2.54,2.54,0,0,1-1.79-.74,2.51,2.51,0,0,1,0-3.58,2.6,2.6,0,0,1,3.58,0,2.53,2.53,0,0,1-1.79,4.32Z"/><path class="cls-2" d="M70.56,31a2.54,2.54,0,0,1-1.79-.74,2.55,2.55,0,0,1,0-3.59,2.62,2.62,0,0,1,3.58,0,2.58,2.58,0,0,1,.74,1.79,2.54,2.54,0,0,1-.74,1.79A2.51,2.51,0,0,1,70.56,31Z"/><path class="cls-2" d="M65.18,36.7a2.53,2.53,0,0,1-1.79-4.32,2.62,2.62,0,0,1,3.58,0,2.53,2.53,0,0,1-1.79,4.32Z"/><path class="cls-2" d="M58.22,43.66a2.53,2.53,0,0,1-1.79-4.32,2.62,2.62,0,0,1,3.58,0,2.53,2.53,0,0,1-1.79,4.32Z"/><path class="cls-2" d="M50,39.87a2.53,2.53,0,0,1-1.79-4.32,2.61,2.61,0,0,1,3.58,0,2.57,2.57,0,0,1,.74,1.8A2.54,2.54,0,0,1,50,39.87Z"/><path class="cls-2" d="M39.75,27.91A2.51,2.51,0,0,1,38,27.16a2.53,2.53,0,0,1,0-3.58,2.62,2.62,0,0,1,3.58,0,2.54,2.54,0,0,1-1.79,4.33Z"/><path class="cls-2" d="M41.13,39.55a2.53,2.53,0,0,1-1.79-4.32,2.61,2.61,0,0,1,3.58,0,2.53,2.53,0,0,1-1.79,4.32Z"/><path class="cls-2" d="M51,33.9a2.53,2.53,0,0,1-1.79-4.32,2.62,2.62,0,0,1,3.58,0A2.53,2.53,0,0,1,51,33.9Z"/><path class="cls-2" d="M76.57,61.38a2.53,2.53,0,0,1-1.79-4.32,2.62,2.62,0,0,1,3.58,0,2.53,2.53,0,0,1-1.79,4.32Z"/><path class="cls-2" d="M67.4,48.09a2.53,2.53,0,0,1-1.8-4.32,2.62,2.62,0,0,1,3.58,0,2.53,2.53,0,0,1-1.78,4.32Z"/><path class="cls-2" d="M68.34,55.37a2.53,2.53,0,0,1-1.79-4.32,2.61,2.61,0,0,1,3.58,0,2.53,2.53,0,0,1-1.79,4.32Z"/><path class="cls-2" d="M57,59.17a2.53,2.53,0,0,1-1.79-4.32,2.6,2.6,0,0,1,3.58,0,2.54,2.54,0,0,1,.74,1.79,2.58,2.58,0,0,1-.74,1.79A2.54,2.54,0,0,1,57,59.17Z"/><path class="cls-2" d="M46.2,57a2.53,2.53,0,0,1-1.8-4.32,2.62,2.62,0,0,1,3.58,0,2.51,2.51,0,0,1,0,3.58A2.54,2.54,0,0,1,46.2,57Z"/><path class="cls-2" d="M40.5,51.26a2.51,2.51,0,0,1-1.79-.75,2.52,2.52,0,0,1,0-3.57,2.6,2.6,0,0,1,3.58,0,2.54,2.54,0,0,1-1.79,4.32Z"/><path class="cls-2" d="M34.8,40.18A2.58,2.58,0,0,1,33,39.44a2.53,2.53,0,0,1,0-3.58,2.62,2.62,0,0,1,3.58,0,2.53,2.53,0,0,1-1.79,4.32Z"/><path class="cls-2" d="M52.53,54.1a2.53,2.53,0,0,1-1.8-4.32,2.62,2.62,0,0,1,3.58,0,2.58,2.58,0,0,1,.74,1.79,2.53,2.53,0,0,1-2.52,2.53Z"/><path class="cls-2" d="M52.53,45.88a2.53,2.53,0,0,1-1.8-4.32,2.61,2.61,0,0,1,3.58,0,2.54,2.54,0,0,1,.74,1.79,2.58,2.58,0,0,1-.74,1.79A2.54,2.54,0,0,1,52.53,45.88Z"/><path class="cls-2" d="M81,72.77a2.53,2.53,0,0,1-1.79-4.32,2.62,2.62,0,0,1,3.58,0A2.53,2.53,0,0,1,81,72.77Z"/><path class="cls-2" d="M87,80.68a2.53,2.53,0,0,1-1.79-4.32,2.62,2.62,0,0,1,3.58,0A2.53,2.53,0,0,1,87,80.68Z"/><path class="cls-2" d="M71.51,84.8a2.51,2.51,0,0,1-1.79-.75A2.54,2.54,0,0,1,69,82.26a2.58,2.58,0,0,1,.74-1.79,2.62,2.62,0,0,1,3.58,0A2.58,2.58,0,0,1,74,82.26a2.54,2.54,0,0,1-2.53,2.54Z"/><path class="cls-2" d="M79.73,88.91a2.53,2.53,0,0,1-2.53-2.53,2.54,2.54,0,0,1,.74-1.79,2.62,2.62,0,0,1,3.58,0,2.55,2.55,0,0,1,.75,1.79,2.59,2.59,0,0,1-.75,1.79A2.54,2.54,0,0,1,79.73,88.91Z"/><path class="cls-2" d="M79.1,81a2.53,2.53,0,0,1-1.79-4.32,2.62,2.62,0,0,1,3.58,0,2.54,2.54,0,0,1,.74,1.79A2.53,2.53,0,0,1,79.1,81Z"/><path class="cls-2" d="M57.58,66.76a2.53,2.53,0,0,1-1.79-4.32,2.62,2.62,0,0,1,3.58,0,2.53,2.53,0,0,1-1.79,4.32Z"/><path class="cls-2" d="M63.28,81a2.53,2.53,0,0,1-1.79-4.32,2.62,2.62,0,0,1,3.58,0,2.54,2.54,0,0,1,.74,1.79,2.58,2.58,0,0,1-.74,1.79A2.54,2.54,0,0,1,63.28,81Z"/><path class="cls-2" d="M54.11,82.58a2.59,2.59,0,0,1-1.8-.74,2.53,2.53,0,0,1,0-3.58,2.62,2.62,0,0,1,3.58,0,2.53,2.53,0,0,1-1.78,4.32Z"/><path class="cls-2" d="M59.48,75A2.54,2.54,0,0,1,57,72.46a2.59,2.59,0,0,1,.74-1.8,2.64,2.64,0,0,1,3.58,0,2.59,2.59,0,0,1,.74,1.8,2.54,2.54,0,0,1-.74,1.78A2.51,2.51,0,0,1,59.48,75Z"/><path class="cls-2" d="M53.79,70.87A2.53,2.53,0,0,1,52,66.55a2.62,2.62,0,0,1,3.58,0,2.53,2.53,0,0,1-1.79,4.32Z"/><path class="cls-2" d="M67.08,71.51a2.51,2.51,0,0,1-1.79-.75,2.52,2.52,0,0,1,0-3.57,2.6,2.6,0,0,1,3.58,0,2.54,2.54,0,0,1-1.79,4.32Z"/><path class="cls-2" d="M74.67,67.39a2.53,2.53,0,0,1-1.79-4.32,2.62,2.62,0,0,1,3.58,0,2.58,2.58,0,0,1,.74,1.79,2.53,2.53,0,0,1-2.53,2.53Z"/><path class="cls-2" d="M44,71.51a2.51,2.51,0,0,1-1.79-.75A2.54,2.54,0,0,1,41.45,69a2.59,2.59,0,0,1,.74-1.8,2.62,2.62,0,0,1,3.58,0,2.59,2.59,0,0,1,.74,1.8,2.54,2.54,0,0,1-.74,1.78A2.51,2.51,0,0,1,44,71.51Z"/><path class="cls-2" d="M34.17,78.78a2.53,2.53,0,0,1-1.79-4.32,2.62,2.62,0,0,1,3.58,0,2.53,2.53,0,0,1-1.79,4.32Z"/><path class="cls-2" d="M44.61,77.2a2.53,2.53,0,0,1-1.79-4.32,2.62,2.62,0,0,1,3.58,0,2.53,2.53,0,0,1-1.79,4.32Z"/><path class="cls-2" d="M47.46,85.11a2.53,2.53,0,0,1-1.79-4.32,2.62,2.62,0,0,1,3.58,0,2.53,2.53,0,0,1-1.79,4.32Z"/><path class="cls-2" d="M29.74,82.9A2.53,2.53,0,0,1,28,78.58a2.61,2.61,0,0,1,3.58,0,2.53,2.53,0,0,1-1.79,4.32Z"/><path class="cls-2" d="M15.82,76.25A2.53,2.53,0,0,1,14,71.93a2.62,2.62,0,0,1,3.58,0,2.53,2.53,0,0,1-1.79,4.32Z"/><path class="cls-2" d="M19.93,82.58a2.53,2.53,0,0,1-1.79-4.32,2.62,2.62,0,0,1,3.58,0,2.53,2.53,0,0,1-1.79,4.32Z"/><path class="cls-2" d="M16.14,88.59a2.53,2.53,0,0,1-1.79-4.32,2.62,2.62,0,0,1,3.58,0,2.53,2.53,0,0,1-1.79,4.32Z"/><path class="cls-2" d="M9.49,91.19A2,2,0,0,1,8.1,87.83a2,2,0,0,1,2.78,0,2,2,0,0,1-1.39,3.36Z"/><path class="cls-2" d="M4.11,90.84A2.25,2.25,0,0,1,2.52,87,2.33,2.33,0,0,1,5.7,87a2.25,2.25,0,0,1-1.59,3.84Z"/><path class="cls-2" d="M6.64,77.2a2.53,2.53,0,0,1-1.79-4.32,2.62,2.62,0,0,1,3.58,0A2.53,2.53,0,0,1,6.64,77.2Z"/><path class="cls-2" d="M5.69,63.6a2.52,2.52,0,0,1-1.78-4.32,2.61,2.61,0,0,1,3.57,0,2.59,2.59,0,0,1,.74,1.8,2.54,2.54,0,0,1-.74,1.78A2.51,2.51,0,0,1,5.69,63.6Z"/><path class="cls-2" d="M21.2,67.71a2.53,2.53,0,0,1-1.79-4.32,2.62,2.62,0,0,1,3.58,0,2.53,2.53,0,0,1-1.79,4.32Z"/><path class="cls-2" d="M15.82,48.41A2.53,2.53,0,0,1,14,44.09a2.61,2.61,0,0,1,3.58,0,2.54,2.54,0,0,1,.74,1.79,2.58,2.58,0,0,1-.74,1.79A2.54,2.54,0,0,1,15.82,48.41Z"/><path class="cls-2" d="M6,39.86a2.53,2.53,0,0,1-1.79-4.32,2.62,2.62,0,0,1,3.58,0,2.58,2.58,0,0,1,.74,1.79A2.53,2.53,0,0,1,6,39.86Z"/><path class="cls-2" d="M8.23,43.66a2.54,2.54,0,0,1-1.79-.74,2.51,2.51,0,0,1,0-3.58,2.61,2.61,0,0,1,3.57,0,2.53,2.53,0,0,1-1.78,4.32Z"/><path class="cls-2" d="M4.11,51.57a2.53,2.53,0,0,1-1.79-4.32,2.62,2.62,0,0,1,3.58,0,2.53,2.53,0,0,1-1.79,4.32Z"/><path class="cls-2" d="M67.71,90.49a2.53,2.53,0,0,1-1.79-4.32,2.62,2.62,0,0,1,3.58,0,2.53,2.53,0,0,1-1.79,4.32Z"/><path class="cls-2" d="M47.15,91.44a2.52,2.52,0,0,1-1.79-4.32,2.61,2.61,0,0,1,3.57,0,2.53,2.53,0,0,1-1.78,4.32Z"/><path class="cls-2" d="M32.91,92.39a2.53,2.53,0,0,1-2.54-2.53,2.54,2.54,0,0,1,.74-1.79,2.62,2.62,0,0,1,3.58,0,2.51,2.51,0,0,1,0,3.58A2.54,2.54,0,0,1,32.91,92.39Z"/><path class="cls-2" d="M32.27,87.64a2.53,2.53,0,0,1-1.79-4.32,2.62,2.62,0,0,1,3.58,0,2.53,2.53,0,0,1-1.79,4.32Z"/><path class="cls-2" d="M54.74,26.26A2.53,2.53,0,0,1,53,21.94a2.62,2.62,0,0,1,3.58,0,2.53,2.53,0,0,1-1.79,4.32Z"/><path class="cls-2" d="M12.66,26.89a2.54,2.54,0,0,1-1.79-.74,2.51,2.51,0,0,1,0-3.58,2.61,2.61,0,0,1,3.57,0,2.51,2.51,0,0,1,0,3.58A2.54,2.54,0,0,1,12.66,26.89Z"/><path class="cls-2" d="M7.44,34a2.53,2.53,0,0,1-1.79-4.32,2.6,2.6,0,0,1,3.58,0A2.54,2.54,0,0,1,10,31.51a2.58,2.58,0,0,1-.74,1.79A2.54,2.54,0,0,1,7.44,34Z"/><path class="cls-2" d="M22.75,34.4A2.53,2.53,0,0,1,21,30.08a2.62,2.62,0,0,1,3.58,0,2.53,2.53,0,0,1-1.79,4.32Z"/><path class="cls-2" d="M48.73,21.52a2.51,2.51,0,0,1-1.79-.75,2.53,2.53,0,0,1,0-3.58,2.62,2.62,0,0,1,3.58,0,2.54,2.54,0,0,1-1.79,4.33Z"/><path class="cls-2" d="M30.06,29.74a2.53,2.53,0,0,1-1.79-4.32,2.61,2.61,0,0,1,3.58,0,2.53,2.53,0,0,1-1.79,4.32Z"/><path class="cls-2" d="M50.94,13a2.53,2.53,0,0,1-1.79-4.32,2.62,2.62,0,0,1,3.58,0A2.53,2.53,0,0,1,50.94,13Z"/><path class="cls-2" d="M58.54,14.24A2.53,2.53,0,0,1,56,11.71a2.54,2.54,0,0,1,.74-1.79,2.6,2.6,0,0,1,3.58,0,2.55,2.55,0,0,1,.75,1.79,2.59,2.59,0,0,1-.75,1.79A2.54,2.54,0,0,1,58.54,14.24Z"/><path class="cls-2" d="M50.62,5.06a2.58,2.58,0,0,1-1.79-.74,2.53,2.53,0,0,1,0-3.58,2.62,2.62,0,0,1,3.58,0,2.51,2.51,0,0,1,0,3.58A2.54,2.54,0,0,1,50.62,5.06Z"/><path class="cls-2" d="M64.23,7.28a2.54,2.54,0,0,1-1.79-.74,2.59,2.59,0,0,1-.74-1.8A2.54,2.54,0,0,1,62.44,3,2.61,2.61,0,0,1,66,3a2.54,2.54,0,0,1,.74,1.78A2.59,2.59,0,0,1,66,6.54,2.54,2.54,0,0,1,64.23,7.28Z"/><path class="cls-2" d="M75,13.6A2.53,2.53,0,0,1,73.2,9.28a2.62,2.62,0,0,1,3.58,0,2.58,2.58,0,0,1,.74,1.79A2.53,2.53,0,0,1,75,13.6Z"/><path class="cls-2" d="M76.57,26A2.54,2.54,0,0,1,74,23.41a2.58,2.58,0,0,1,.74-1.79,2.62,2.62,0,0,1,3.58,0,2.58,2.58,0,0,1,.74,1.79,2.54,2.54,0,0,1-.74,1.79A2.51,2.51,0,0,1,76.57,26Z"/><path class="cls-2" d="M75,37a2.54,2.54,0,0,1-1.79-.74,2.58,2.58,0,0,1-.74-1.79,2.54,2.54,0,0,1,.74-1.79,2.61,2.61,0,0,1,3.58,0,2.54,2.54,0,0,1,.74,1.79,2.58,2.58,0,0,1-.74,1.79A2.54,2.54,0,0,1,75,37Z"/><path class="cls-2" d="M74.36,43a2.54,2.54,0,0,1-1.79-.74,2.51,2.51,0,0,1,0-3.58,2.61,2.61,0,0,1,3.57,0A2.53,2.53,0,0,1,74.36,43Z"/><path class="cls-2" d="M81,55.37a2.53,2.53,0,0,1-1.79-4.32,2.6,2.6,0,0,1,3.58,0A2.53,2.53,0,0,1,81,55.37Z"/><path class="cls-2" d="M89,57.75a1.6,1.6,0,0,1-1.15-.48,1.64,1.64,0,0,1-.48-1.15,1.63,1.63,0,0,1,3.26,0,1.64,1.64,0,0,1-.48,1.15A1.62,1.62,0,0,1,89,57.75Z"/><path class="cls-2" d="M86.7,30.85a2.52,2.52,0,0,1-1.79-4.32,2.61,2.61,0,0,1,3.57,0,2.53,2.53,0,0,1-1.78,4.32Z"/><path class="cls-2" d="M84.48,27.21a2.53,2.53,0,0,1-1.79-4.32,2.62,2.62,0,0,1,3.58,0,2.53,2.53,0,0,1-1.79,4.32Z"/><path class="cls-2" d="M88,16.77a2.53,2.53,0,0,1-1.79-4.32,2.61,2.61,0,0,1,3.58,0A2.53,2.53,0,0,1,88,16.77Z"/><path class="cls-2" d="M86.7,5.7A2.55,2.55,0,0,1,84.91,5a2.51,2.51,0,0,1,0-3.58,2.61,2.61,0,0,1,3.57,0A2.54,2.54,0,0,1,86.7,5.7Z"/><path class="cls-2" d="M20.69,90.56a2.53,2.53,0,0,1-1.79-4.32,2.62,2.62,0,0,1,3.58,0,2.53,2.53,0,0,1-1.79,4.32Z"/><path class="cls-2" d="M41.76,89.22A2.58,2.58,0,0,1,40,88.48a2.52,2.52,0,0,1,0-3.57,2.6,2.6,0,0,1,3.58,0,2.5,2.5,0,0,1,0,3.57A2.54,2.54,0,0,1,41.76,89.22Z"/><path class="cls-2" d="M75.62,91.76a2.53,2.53,0,0,1-2.53-2.54,2.52,2.52,0,0,1,.74-1.78,2.6,2.6,0,0,1,3.58,0,2.54,2.54,0,0,1,.74,1.78,2.59,2.59,0,0,1-.74,1.8A2.54,2.54,0,0,1,75.62,91.76Z"/><path class="cls-2" d="M85.43,35.54a1.69,1.69,0,0,1-1.69-1.69,1.67,1.67,0,0,1,.5-1.19,1.74,1.74,0,0,1,2.38,0,1.67,1.67,0,0,1,.5,1.19,1.69,1.69,0,0,1-1.69,1.69Z"/><path class="cls-2" d="M74.67,67.18a1.68,1.68,0,0,1-1.19-2.88,1.74,1.74,0,0,1,2.38,0,1.69,1.69,0,0,1-1.19,2.88Z"/><path class="cls-2" d="M48.41,17.82a1.71,1.71,0,0,1-1.19-.49,1.67,1.67,0,0,1-.5-1.19,1.73,1.73,0,0,1,.49-1.2,1.75,1.75,0,0,1,2.39,0,1.68,1.68,0,0,1,0,2.39A1.72,1.72,0,0,1,48.41,17.82Z"/><path class="cls-2" d="M30.37,35.23a1.69,1.69,0,0,1-1.19-2.88,1.74,1.74,0,0,1,2.39,0,1.69,1.69,0,0,1-1.2,2.88Z"/><path class="cls-2" d="M36.7,79.2A1.69,1.69,0,0,1,35,77.52a1.67,1.67,0,0,1,.5-1.19,1.75,1.75,0,0,1,2.39,0,1.73,1.73,0,0,1,.49,1.2A1.69,1.69,0,0,1,36.7,79.2Z"/><path class="cls-2" d="M55.05,74.46a1.67,1.67,0,0,1-1.19-.5,1.7,1.7,0,0,1-.5-1.19,1.67,1.67,0,0,1,.5-1.19,1.75,1.75,0,0,1,2.39,0,1.69,1.69,0,0,1-1.2,2.88Z"/><path class="cls-2" d="M48.41,59.91a1.72,1.72,0,0,1-1.19-.5,1.67,1.67,0,0,1-.5-1.19,1.73,1.73,0,0,1,.49-1.2,1.76,1.76,0,0,1,2.39,0,1.68,1.68,0,0,1,0,2.39A1.67,1.67,0,0,1,48.41,59.91Z"/><path class="cls-2" d="M19.62,69.71a1.73,1.73,0,0,1-1.2-.49A1.71,1.71,0,0,1,17.93,68a1.73,1.73,0,0,1,.49-1.2,1.77,1.77,0,0,1,2.39,0A1.73,1.73,0,0,1,21.3,68a1.71,1.71,0,0,1-.49,1.19A1.72,1.72,0,0,1,19.62,69.71Z"/><path class="cls-2" d="M34.17,60.85a1.69,1.69,0,0,1-1.69-1.68A1.73,1.73,0,0,1,33,58a1.75,1.75,0,0,1,2.39,0,1.69,1.69,0,0,1-1.19,2.88Z"/><path class="cls-2" d="M62.65,44.08a1.69,1.69,0,0,1-1.2-.49,1.7,1.7,0,0,1,0-2.39,1.76,1.76,0,0,1,2.39,0,1.69,1.69,0,0,1-1.19,2.88Z"/><path class="cls-2" d="M48.41,34.91a1.71,1.71,0,0,1-1.69-1.69A1.71,1.71,0,0,1,47.21,32a1.75,1.75,0,0,1,2.39,0,1.69,1.69,0,0,1-1.19,2.88Z"/><path class="cls-2" d="M25,45.67a1.67,1.67,0,0,1-1.19-.5A1.71,1.71,0,0,1,23.31,44a1.69,1.69,0,0,1,.49-1.19,1.75,1.75,0,0,1,2.39,0A1.69,1.69,0,0,1,26.68,44,1.69,1.69,0,0,1,25,45.67Z"/><path class="cls-2" d="M22.15,58A1.69,1.69,0,0,1,21,55.13a1.75,1.75,0,0,1,2.39,0,1.67,1.67,0,0,1,0,2.38A1.69,1.69,0,0,1,22.15,58Z"/><path class="cls-2" d="M8.86,56.74a1.69,1.69,0,0,1-1.2-2.88,1.75,1.75,0,0,1,2.39,0,1.69,1.69,0,0,1-1.19,2.88Z"/><path class="cls-2" d="M18.35,36.49a1.69,1.69,0,0,1-1.69-1.69,1.67,1.67,0,0,1,.5-1.19,1.73,1.73,0,0,1,2.38,0A1.67,1.67,0,0,1,20,34.8a1.69,1.69,0,0,1-1.69,1.69Z"/><path class="cls-2" d="M7.28,12.13a1.69,1.69,0,0,1-1.2-2.88,1.75,1.75,0,0,1,2.39,0,1.69,1.69,0,0,1,0,2.38A1.67,1.67,0,0,1,7.28,12.13Z"/><path class="cls-2" d="M20.25,24.15a1.69,1.69,0,0,1-1.2-2.88,1.75,1.75,0,0,1,2.39,0,1.69,1.69,0,0,1-1.19,2.88Z"/><path class="cls-2" d="M30.69,13.39A1.69,1.69,0,0,1,29,11.7a1.67,1.67,0,0,1,.5-1.19,1.73,1.73,0,0,1,2.38,0,1.69,1.69,0,0,1-1.19,2.88Z"/><path class="cls-2" d="M62.65,8.33a1.73,1.73,0,0,1-1.2-.49A1.75,1.75,0,0,1,61,6.64a1.71,1.71,0,0,1,.49-1.19,1.75,1.75,0,0,1,2.39,0,1.67,1.67,0,0,1,.5,1.19,1.69,1.69,0,0,1-1.69,1.69Z"/><path class="cls-2" d="M61.7,27a1.67,1.67,0,0,1-1.19-.5,1.66,1.66,0,0,1-.5-1.19,1.71,1.71,0,0,1,.49-1.19,1.75,1.75,0,0,1,2.39,0A1.69,1.69,0,0,1,61.7,27Z"/><path class="cls-2" d="M82.58,54.53a1.69,1.69,0,0,1-1.68-1.69,1.65,1.65,0,0,1,.49-1.19,1.75,1.75,0,0,1,2.39,0,1.69,1.69,0,0,1,.49,1.19,1.69,1.69,0,0,1-1.69,1.69Z"/><path class="cls-2" d="M59.48,55.16a1.72,1.72,0,0,1-1.19-.49,1.75,1.75,0,0,1-.49-1.2,1.71,1.71,0,0,1,.49-1.19,1.75,1.75,0,0,1,2.39,0,1.69,1.69,0,0,1-1.2,2.88Z"/><path class="cls-2" d="M67.39,81.42a1.69,1.69,0,0,1-1.19-2.88,1.75,1.75,0,0,1,2.39,0,1.69,1.69,0,0,1-1.2,2.88Z"/><path class="cls-2" d="M51.89,83.64a1.68,1.68,0,0,1-1.19-2.88,1.74,1.74,0,0,1,2.38,0,1.71,1.71,0,0,1,.5,1.2,1.69,1.69,0,0,1-.5,1.19A1.67,1.67,0,0,1,51.89,83.64Z"/><path class="cls-2" d="M28.48,88.07a1.69,1.69,0,0,1-1.69-1.69,1.73,1.73,0,0,1,.49-1.2,1.69,1.69,0,0,1,2.88,1.2,1.69,1.69,0,0,1-1.68,1.69Z"/><path class="cls-2" d="M8.23,87.12A1.69,1.69,0,0,1,7,84.24a1.75,1.75,0,0,1,2.39,0,1.69,1.69,0,0,1-1.19,2.88Z"/><path class="cls-2" d="M3.16,72.56A1.71,1.71,0,0,1,2,72.07a1.74,1.74,0,0,1-.5-1.2A1.72,1.72,0,0,1,2,69.68a1.75,1.75,0,0,1,2.39,0,1.71,1.71,0,0,1,.49,1.19,1.73,1.73,0,0,1-.49,1.2A1.73,1.73,0,0,1,3.16,72.56Z"/><path class="cls-2" d="M17.4,79.84A1.68,1.68,0,0,1,16.21,77a1.73,1.73,0,0,1,2.38,0,1.67,1.67,0,0,1,.5,1.19,1.71,1.71,0,0,1-1.69,1.69Z"/><path class="cls-2" d="M81.63,83.32a1.68,1.68,0,0,1-1.19-2.88,1.75,1.75,0,0,1,2.39,0,1.69,1.69,0,0,1,0,2.39A1.69,1.69,0,0,1,81.63,83.32Z"/><path class="cls-2" d="M86.38,67.18a1.68,1.68,0,0,1-1.19-2.88,1.74,1.74,0,0,1,2.38,0,1.68,1.68,0,0,1,0,2.39A1.71,1.71,0,0,1,86.38,67.18Z"/><path class="cls-2" d="M61.7,64a1.66,1.66,0,0,1-1.19-.5,1.67,1.67,0,0,1-.5-1.19,1.71,1.71,0,0,1,.49-1.19,1.75,1.75,0,0,1,2.39,0A1.69,1.69,0,0,1,61.7,64Z"/><path class="cls-2" d="M42.08,68.45a1.67,1.67,0,0,1-1.19-.5,1.66,1.66,0,0,1-.5-1.19,1.67,1.67,0,0,1,.5-1.19,1.75,1.75,0,0,1,2.39,0,1.71,1.71,0,0,1,.49,1.19,1.67,1.67,0,0,1-.5,1.19A1.66,1.66,0,0,1,42.08,68.45Z"/><path class="cls-2" d="M28.48,70a1.69,1.69,0,0,1-1.2-2.88,1.75,1.75,0,0,1,2.39,0,1.71,1.71,0,0,1,.49,1.19,1.73,1.73,0,0,1-.49,1.2A1.71,1.71,0,0,1,28.48,70Z"/><path class="cls-2" d="M37.33,23.83a1.67,1.67,0,0,1-1.68-1.68,1.73,1.73,0,0,1,.49-1.2A1.69,1.69,0,0,1,39,22.15a1.71,1.71,0,0,1-.49,1.19A1.73,1.73,0,0,1,37.33,23.83Z"/><path class="cls-2" d="M84.16,8a1.67,1.67,0,0,1-1.68-1.68A1.69,1.69,0,0,1,83,5.14a1.74,1.74,0,0,1,2.39,0A1.69,1.69,0,0,1,84.16,8Z"/><path class="cls-2" d="M72.77,41.87a1.67,1.67,0,0,1-1.68-1.69A1.71,1.71,0,0,1,71.58,39,1.75,1.75,0,0,1,74,39a1.71,1.71,0,0,1,.49,1.19,1.67,1.67,0,0,1-1.69,1.69Z"/><path class="cls-2" d="M11.07,71.61a1.71,1.71,0,0,1-1.19-.49,1.7,1.7,0,0,1,0-2.39,1.75,1.75,0,0,1,2.39,0,1.69,1.69,0,0,1-1.2,2.88Z"/><path class="cls-2" d="M15.19,49.46A1.73,1.73,0,0,1,14,49a1.71,1.71,0,0,1-.49-1.19,1.73,1.73,0,0,1,.49-1.2,1.76,1.76,0,0,1,2.39,0,1.73,1.73,0,0,1,.49,1.2,1.67,1.67,0,0,1-1.68,1.68Z"/><path class="cls-2" d="M6.33,46.3a1.67,1.67,0,0,1-1.69-1.69,1.71,1.71,0,0,1,.49-1.19,1.75,1.75,0,0,1,2.39,0A1.72,1.72,0,0,1,8,44.61a1.74,1.74,0,0,1-.5,1.2A1.71,1.71,0,0,1,6.33,46.3Z"/><path class="cls-2" d="M2.21,62.12A1.71,1.71,0,0,1,1,61.63a1.73,1.73,0,0,1-.49-1.2A1.71,1.71,0,0,1,1,59.24a1.75,1.75,0,0,1,2.39,0,1.71,1.71,0,0,1,.49,1.19,1.73,1.73,0,0,1-.49,1.2A1.73,1.73,0,0,1,2.21,62.12Z"/><path class="cls-2" d="M3.48,22.89A1.71,1.71,0,0,1,1.79,21.2a1.7,1.7,0,0,1,.5-1.2,1.74,1.74,0,0,1,2.38,0,1.71,1.71,0,0,1,.5,1.2,1.71,1.71,0,0,1-1.69,1.69Z"/><path class="cls-2" d="M11.39,27A1.69,1.69,0,0,1,9.7,25.31a1.67,1.67,0,0,1,.5-1.19,1.73,1.73,0,0,1,2.38,0,1.67,1.67,0,0,1,.5,1.19A1.69,1.69,0,0,1,11.39,27Z"/><path class="cls-2" d="M18.75,11.81a1.68,1.68,0,0,1-1.19-2.88,1.73,1.73,0,0,1,2.38,0,1.67,1.67,0,0,1,.5,1.19,1.69,1.69,0,0,1-1.69,1.69Z"/><path class="cls-2" d="M50.94,7.07a1.69,1.69,0,0,1-1.19-.5,1.67,1.67,0,0,1-.5-1.19,1.7,1.7,0,0,1,.5-1.2,1.76,1.76,0,0,1,2.38,0,1.71,1.71,0,0,1,.5,1.2,1.71,1.71,0,0,1-1.69,1.69Z"/><path class="cls-2" d="M40.18,10.55A1.68,1.68,0,0,1,39,7.67a1.68,1.68,0,0,1,2.88,1.19,1.67,1.67,0,0,1-.5,1.19A1.66,1.66,0,0,1,40.18,10.55Z"/><path class="cls-2" d="M3.16,82.05a1.69,1.69,0,0,1-1.69-1.68,1.74,1.74,0,0,1,.5-1.2,1.76,1.76,0,0,1,2.39,0,1.7,1.7,0,0,1,0,2.39A1.73,1.73,0,0,1,3.16,82.05Z"/><path class="cls-2" d="M10.12,78.89a1.71,1.71,0,0,1-1.19-.49,1.73,1.73,0,0,1-.49-1.2A1.71,1.71,0,0,1,8.93,76a1.75,1.75,0,0,1,2.39,0,1.71,1.71,0,0,1,.49,1.19,1.67,1.67,0,0,1-1.69,1.69Z"/><path class="cls-2" d="M6.64,64.65a1.71,1.71,0,0,1-1.19-.49,1.7,1.7,0,0,1,0-2.39,1.75,1.75,0,0,1,2.39,0,1.69,1.69,0,0,1-1.2,2.88Z"/><path class="cls-2" d="M15.19,62.44A1.69,1.69,0,0,1,14,59.56a1.75,1.75,0,0,1,2.39,0,1.69,1.69,0,0,1,0,2.38A1.67,1.67,0,0,1,15.19,62.44Z"/><path class="cls-2" d="M2.85,51.36a1.67,1.67,0,0,1-1.69-1.68,1.73,1.73,0,0,1,.49-1.2,1.75,1.75,0,0,1,2.39,0,1.7,1.7,0,0,1,0,2.39A1.72,1.72,0,0,1,2.85,51.36Z"/><path class="cls-2" d="M38.75,30.81a1.69,1.69,0,0,1-1.69-1.69,1.67,1.67,0,0,1,.5-1.19,1.73,1.73,0,0,1,2.38,0,1.69,1.69,0,0,1-1.19,2.88Z"/><path class="cls-2" d="M28.48,22.25a1.69,1.69,0,0,1-1.2-2.88,1.75,1.75,0,0,1,2.39,0,1.7,1.7,0,0,1,0,2.39A1.71,1.71,0,0,1,28.48,22.25Z"/><path class="cls-2" d="M34.17,27.63a1.69,1.69,0,0,1-1.69-1.69A1.72,1.72,0,0,1,33,24.75a1.75,1.75,0,0,1,2.39,0,1.69,1.69,0,0,1-1.19,2.88Z"/><path class="cls-2" d="M41.13,34.59a1.71,1.71,0,0,1-1.19-.49,1.67,1.67,0,0,1-.5-1.19,1.7,1.7,0,0,1,.5-1.2,1.73,1.73,0,0,1,2.38,0,1.69,1.69,0,0,1-1.19,2.88Z"/><path class="cls-2" d="M37.33,42.82a1.72,1.72,0,0,1-1.19-.49,1.75,1.75,0,0,1-.49-1.2,1.71,1.71,0,0,1,.49-1.19,1.75,1.75,0,0,1,2.39,0,1.69,1.69,0,0,1-1.2,2.88Z"/><path class="cls-2" d="M28.79,53.89a1.69,1.69,0,0,1-1.69-1.68,1.68,1.68,0,0,1,.5-1.2A1.76,1.76,0,0,1,30,51a1.73,1.73,0,0,1,.49,1.2,1.69,1.69,0,0,1-1.69,1.68Z"/><path class="cls-2" d="M37,51.68A1.69,1.69,0,0,1,35.33,50a1.67,1.67,0,0,1,.5-1.19,1.73,1.73,0,0,1,2.38,0,1.67,1.67,0,0,1,.5,1.19,1.66,1.66,0,0,1-.5,1.19A1.67,1.67,0,0,1,37,51.68Z"/><path class="cls-2" d="M31.32,42.82a1.67,1.67,0,0,1-1.19-.5,1.69,1.69,0,0,1,0-2.38,1.75,1.75,0,0,1,2.39,0A1.72,1.72,0,0,1,33,41.13a1.69,1.69,0,0,1-1.69,1.69Z"/><path class="cls-2" d="M58.85,16.24a1.68,1.68,0,0,1-1.19-2.88,1.73,1.73,0,0,1,2.38,0,1.69,1.69,0,0,1-1.19,2.88Z"/><path class="cls-2" d="M45.56,25.42a1.68,1.68,0,0,1-1.19-2.88,1.74,1.74,0,0,1,2.38,0,1.69,1.69,0,0,1-1.19,2.89Z"/><path class="cls-2" d="M52.84,24.47a1.67,1.67,0,0,1-1.19-.5,1.66,1.66,0,0,1-.5-1.19,1.71,1.71,0,0,1,.49-1.19,1.75,1.75,0,0,1,2.39,0A1.67,1.67,0,0,1,54,24,1.69,1.69,0,0,1,52.84,24.47Z"/><path class="cls-2" d="M56.64,35.86A1.69,1.69,0,0,1,55.44,33a1.75,1.75,0,0,1,2.39,0,1.69,1.69,0,0,1,0,2.38A1.67,1.67,0,0,1,56.64,35.86Z"/><path class="cls-2" d="M54.42,46.62a1.67,1.67,0,0,1-1.19-.5,1.67,1.67,0,0,1,0-2.38,1.73,1.73,0,0,1,2.38,0,1.66,1.66,0,0,1,.5,1.19,1.71,1.71,0,0,1-1.69,1.69Z"/><path class="cls-2" d="M48.73,52.31A1.67,1.67,0,0,1,47,50.62a1.71,1.71,0,0,1,.49-1.19,1.75,1.75,0,0,1,2.39,0,1.71,1.71,0,0,1,.49,1.19,1.67,1.67,0,0,1-1.68,1.69Z"/><path class="cls-2" d="M41.76,56.42a1.69,1.69,0,0,1-1.19-2.88,1.77,1.77,0,0,1,2.39,0,1.69,1.69,0,0,1-1.2,2.88Z"/><path class="cls-2" d="M51.57,40.29a1.69,1.69,0,0,1-1.19-2.88,1.75,1.75,0,0,1,2.39,0,1.69,1.69,0,0,1-1.2,2.88Z"/><path class="cls-2" d="M43.35,40.29a1.69,1.69,0,0,1-1.2-2.88,1.75,1.75,0,0,1,2.39,0,1.69,1.69,0,0,1-1.19,2.88Z"/><path class="cls-2" d="M70.24,11.81a1.69,1.69,0,0,1-1.69-1.69,1.67,1.67,0,0,1,.5-1.19,1.73,1.73,0,0,1,2.38,0,1.67,1.67,0,0,1,.5,1.19,1.69,1.69,0,0,1-1.69,1.69Z"/><path class="cls-2" d="M78.15,5.8a1.69,1.69,0,0,1-1.69-1.69A1.67,1.67,0,0,1,77,2.92a1.73,1.73,0,0,1,2.38,0,1.67,1.67,0,0,1,.5,1.19A1.69,1.69,0,0,1,78.15,5.8Z"/><path class="cls-2" d="M82.26,21.3a1.69,1.69,0,0,1-1.19-2.88,1.76,1.76,0,0,1,2.39,0,1.69,1.69,0,0,1-1.2,2.88Z"/><path class="cls-2" d="M86.38,13.08a1.68,1.68,0,0,1-1.19-2.88,1.72,1.72,0,0,1,2.38,0,1.66,1.66,0,0,1,.5,1.19,1.71,1.71,0,0,1-1.69,1.69Z"/><path class="cls-2" d="M78.47,13.71A1.67,1.67,0,0,1,76.78,12a1.71,1.71,0,0,1,.49-1.19,1.75,1.75,0,0,1,2.39,0,1.67,1.67,0,0,1,.5,1.19,1.76,1.76,0,0,1-.5,1.2A1.72,1.72,0,0,1,78.47,13.71Z"/><path class="cls-2" d="M64.23,35.23a1.66,1.66,0,0,1-1.19-.5,1.67,1.67,0,0,1-.5-1.19,1.66,1.66,0,0,1,.5-1.19,1.73,1.73,0,0,1,2.38,0,1.66,1.66,0,0,1,.5,1.19,1.71,1.71,0,0,1-1.69,1.69Z"/><path class="cls-2" d="M78.47,29.53a1.69,1.69,0,0,1-1.2-2.88,1.75,1.75,0,0,1,2.39,0,1.67,1.67,0,0,1,.5,1.19,1.72,1.72,0,0,1-.5,1.19A1.67,1.67,0,0,1,78.47,29.53Z"/><path class="cls-2" d="M80.05,38.71A1.71,1.71,0,0,1,78.36,37a1.7,1.7,0,0,1,.5-1.2,1.76,1.76,0,0,1,2.38,0,1.7,1.7,0,0,1,.5,1.2,1.71,1.71,0,0,1-1.69,1.69Z"/><path class="cls-2" d="M72.46,33.33a1.69,1.69,0,0,1-1.2-2.88,1.75,1.75,0,0,1,2.39,0,1.69,1.69,0,0,1-1.19,2.88Z"/><path class="cls-2" d="M68.34,39a1.69,1.69,0,0,1-1.69-1.69,1.67,1.67,0,0,1,.5-1.19,1.73,1.73,0,0,1,2.38,0,1.67,1.67,0,0,1,.5,1.19A1.69,1.69,0,0,1,68.34,39Z"/><path class="cls-2" d="M69,25.73a1.69,1.69,0,0,1-1.2-2.88,1.75,1.75,0,0,1,2.39,0A1.69,1.69,0,0,1,69,25.73Z"/><path class="cls-2" d="M64.86,18.14a1.69,1.69,0,0,1-1.69-1.69,1.67,1.67,0,0,1,.5-1.19,1.75,1.75,0,0,1,2.39,0,1.69,1.69,0,0,1,0,2.39A1.69,1.69,0,0,1,64.86,18.14Z"/><path class="cls-2" d="M69,48.83a1.67,1.67,0,0,1-1.69-1.69A1.71,1.71,0,0,1,67.78,46a1.75,1.75,0,0,1,2.39,0,1.71,1.71,0,0,1,.49,1.19A1.67,1.67,0,0,1,69,48.83Z"/><path class="cls-2" d="M67.39,58.64A1.67,1.67,0,0,1,65.71,57a1.71,1.71,0,0,1,.49-1.19,1.75,1.75,0,0,1,2.39,0A1.71,1.71,0,0,1,69.08,57a1.67,1.67,0,0,1-1.69,1.69Z"/><path class="cls-2" d="M76.25,58.64a1.72,1.72,0,0,1-1.19-.49,1.76,1.76,0,0,1-.5-1.2,1.67,1.67,0,0,1,.5-1.19,1.75,1.75,0,0,1,2.39,0A1.71,1.71,0,0,1,77.94,57a1.67,1.67,0,0,1-1.69,1.69Z"/><path class="cls-2" d="M74.67,48.2a1.68,1.68,0,0,1-1.19-2.88,1.73,1.73,0,0,1,2.38,0,1.69,1.69,0,0,1-1.19,2.88Z"/><path class="cls-2" d="M82.58,45.35a1.71,1.71,0,0,1-1.19-.49,1.73,1.73,0,0,1-.49-1.2,1.66,1.66,0,0,1,.49-1.19,1.75,1.75,0,0,1,2.39,0,1.71,1.71,0,0,1,.49,1.19,1.67,1.67,0,0,1-1.69,1.69Z"/><path class="cls-2" d="M80.37,63.07a1.73,1.73,0,0,1-1.2-.49,1.75,1.75,0,0,1-.49-1.2,1.71,1.71,0,0,1,.49-1.19,1.75,1.75,0,0,1,2.39,0,1.71,1.71,0,0,1,.49,1.19,1.73,1.73,0,0,1-.49,1.2A1.71,1.71,0,0,1,80.37,63.07Z"/><path class="cls-2" d="M73.72,77a1.68,1.68,0,0,1-1.19-2.88,1.73,1.73,0,0,1,2.38,0A1.69,1.69,0,0,1,73.72,77Z"/><path class="cls-2" d="M80.05,72.88a1.69,1.69,0,0,1-1.69-1.69,1.67,1.67,0,0,1,.5-1.19,1.73,1.73,0,0,1,2.38,0,1.69,1.69,0,0,1-1.19,2.88Z"/><path class="cls-2" d="M86.06,76.68a1.72,1.72,0,0,1-1.19-.5,1.67,1.67,0,0,1-.5-1.19,1.7,1.7,0,0,1,.5-1.2,1.77,1.77,0,0,1,2.39,0,1.73,1.73,0,0,1,.49,1.2,1.71,1.71,0,0,1-.49,1.19A1.74,1.74,0,0,1,86.06,76.68Z"/><path class="cls-2" d="M89.23,83.32a1.67,1.67,0,0,1-1.69-1.69A1.71,1.71,0,0,1,88,80.44a1.75,1.75,0,0,1,2.39,0,1.71,1.71,0,0,1,.49,1.19,1.75,1.75,0,0,1-.49,1.2A1.72,1.72,0,0,1,89.23,83.32Z"/><path class="cls-2" d="M88.59,88.7A1.71,1.71,0,0,1,86.9,87a1.66,1.66,0,0,1,.5-1.19,1.73,1.73,0,0,1,2.38,0,1.66,1.66,0,0,1,.5,1.19,1.69,1.69,0,0,1-1.69,1.69Z"/><path class="cls-2" d="M74.67,86.17A1.71,1.71,0,0,1,73,84.48a1.7,1.7,0,0,1,.5-1.2,1.76,1.76,0,0,1,2.38,0,1.7,1.7,0,0,1,.5,1.2,1.71,1.71,0,0,1-1.69,1.69Z"/><path class="cls-2" d="M61.07,87.12a1.69,1.69,0,0,1-1.2-2.88,1.75,1.75,0,0,1,2.39,0,1.69,1.69,0,0,1,.49,1.19,1.72,1.72,0,0,1-.49,1.19A1.67,1.67,0,0,1,61.07,87.12Z"/><path class="cls-2" d="M65.18,71.61A1.68,1.68,0,0,1,64,68.73a1.74,1.74,0,0,1,2.38,0,1.69,1.69,0,0,1-1.19,2.88Z"/><path class="cls-2" d="M51.57,65.6a1.67,1.67,0,0,1-1.68-1.69,1.71,1.71,0,0,1,.49-1.19,1.75,1.75,0,0,1,2.39,0,1.69,1.69,0,0,1-1.2,2.88Z"/><path class="cls-2" d="M45.88,77a1.67,1.67,0,0,1-1.69-1.69,1.71,1.71,0,0,1,.49-1.19,1.75,1.75,0,0,1,2.39,0,1.67,1.67,0,0,1,.5,1.19A1.69,1.69,0,0,1,45.88,77Z"/><path class="cls-2" d="M37.33,86.8a1.71,1.71,0,0,1-1.19-.49,1.73,1.73,0,0,1-.49-1.2,1.71,1.71,0,0,1,.49-1.19,1.75,1.75,0,0,1,2.39,0A1.71,1.71,0,0,1,39,85.11a1.67,1.67,0,0,1-1.69,1.69Z"/><path class="cls-2" d="M41.13,84.58a1.71,1.71,0,0,1-1.19-.49,1.67,1.67,0,0,1-.5-1.19,1.7,1.7,0,0,1,.5-1.2,1.74,1.74,0,0,1,2.38,0,1.7,1.7,0,0,1,.5,1.2,1.72,1.72,0,0,1-.49,1.19A1.75,1.75,0,0,1,41.13,84.58Z"/><path class="cls-2" d="M49,88.7a1.68,1.68,0,0,1-1.19-2.88,1.75,1.75,0,0,1,2.39,0A1.69,1.69,0,0,1,49,88.7Z"/><path class="cls-2" d="M88,25.1a1.69,1.69,0,0,1-1.69-1.69,1.71,1.71,0,0,1,.49-1.19,1.75,1.75,0,0,1,2.39,0,1.67,1.67,0,0,1,.5,1.19A1.69,1.69,0,0,1,88,25.1Z"/><path class="cls-2" d="M88.91,45.67a1.66,1.66,0,0,1-1.19-.5,1.67,1.67,0,0,1-.5-1.19,1.71,1.71,0,0,1,.49-1.19,1.76,1.76,0,0,1,2.39,0,1.7,1.7,0,0,1,.5,1.2,1.71,1.71,0,0,1-1.69,1.69Z"/><path class="cls-2" d="M85.11,60.54a1.68,1.68,0,0,1-1.19-2.88,1.75,1.75,0,0,1,2.39,0,1.68,1.68,0,0,1,0,2.38A1.66,1.66,0,0,1,85.11,60.54Z"/><path class="cls-2" d="M23.73,38.07a1.68,1.68,0,0,1-1.19-2.88,1.73,1.73,0,0,1,2.38,0,1.69,1.69,0,0,1-1.19,2.88Z"/><path class="cls-2" d="M24.36,80.15a1.68,1.68,0,0,1-1.19-2.88,1.76,1.76,0,0,1,2.39,0,1.73,1.73,0,0,1,.49,1.2,1.69,1.69,0,0,1-1.69,1.68Z"/><path class="cls-2" d="M31,82.37a1.75,1.75,0,0,1-1.2-.49,1.73,1.73,0,0,1-.49-1.2,1.71,1.71,0,0,1,.49-1.19,1.75,1.75,0,0,1,2.39,0,1.67,1.67,0,0,1,.5,1.19A1.69,1.69,0,0,1,31,82.37Z"/><path class="cls-2" d="M34.8,69.4a1.69,1.69,0,0,1-1.19-2.88,1.75,1.75,0,0,1,2.39,0,1.68,1.68,0,0,1,0,2.38A1.66,1.66,0,0,1,34.8,69.4Z"/><path class="cls-2" d="M19,44.08A1.67,1.67,0,0,1,17.3,42.4a1.73,1.73,0,0,1,.49-1.2,1.77,1.77,0,0,1,2.39,0,1.73,1.73,0,0,1,.49,1.2,1.71,1.71,0,0,1-.49,1.19A1.73,1.73,0,0,1,19,44.08Z"/><path class="cls-2" d="M27.21,62.75a1.69,1.69,0,0,1-1.69-1.68,1.73,1.73,0,0,1,.49-1.2,1.75,1.75,0,0,1,2.39,0,1.69,1.69,0,0,1-1.19,2.88Z"/><path class="cls-2" d="M10.44,41.87a1.69,1.69,0,0,1-1.69-1.69A1.67,1.67,0,0,1,9.25,39a1.73,1.73,0,0,1,2.38,0,1.67,1.67,0,0,1,.5,1.19,1.69,1.69,0,0,1-1.69,1.69Z"/><path class="cls-2" d="M11.71,34.28a1.7,1.7,0,0,1-1.2-2.89,1.76,1.76,0,0,1,2.39,0,1.74,1.74,0,0,1,.5,1.2,1.72,1.72,0,0,1-.5,1.19A1.67,1.67,0,0,1,11.71,34.28Z"/><path class="cls-2" d="M2.53,42.19a1.7,1.7,0,0,1-1.19-.5,1.67,1.67,0,0,1-.5-1.19,1.66,1.66,0,0,1,.5-1.19,1.74,1.74,0,0,1,2.38,0,1.7,1.7,0,0,1,.5,1.2,1.67,1.67,0,0,1-.5,1.19A1.7,1.7,0,0,1,2.53,42.19Z"/><path class="cls-2" d="M4.75,28.58a1.69,1.69,0,0,1-1.69-1.69,1.71,1.71,0,0,1,.49-1.19,1.75,1.75,0,0,1,2.39,0,1.71,1.71,0,0,1,.49,1.19,1.69,1.69,0,0,1-1.68,1.69Z"/><path class="cls-2" d="M11.07,17.82a1.71,1.71,0,0,1-1.19-.49,1.7,1.7,0,0,1,0-2.39,1.75,1.75,0,0,1,2.39,0,1.69,1.69,0,0,1-1.2,2.88Z"/><path class="cls-2" d="M23.41,16.24a1.69,1.69,0,0,1-1.19-2.88,1.75,1.75,0,0,1,2.39,0,1.69,1.69,0,0,1,0,2.39A1.69,1.69,0,0,1,23.41,16.24Z"/><path class="cls-2" d="M34.49,17.82a1.69,1.69,0,0,1-1.2-2.88,1.75,1.75,0,0,1,2.39,0,1.69,1.69,0,0,1,.5,1.19,1.74,1.74,0,0,1-.5,1.2A1.71,1.71,0,0,1,34.49,17.82Z"/><path class="cls-2" d="M40.5,18.46a1.7,1.7,0,0,1-1.19-.5,1.67,1.67,0,0,1-.5-1.19,1.73,1.73,0,0,1,.49-1.2,1.76,1.76,0,0,1,2.39,0,1.71,1.71,0,0,1,.5,1.2,1.67,1.67,0,0,1-.5,1.19A1.7,1.7,0,0,1,40.5,18.46Z"/><path class="cls-2" d="M52.84,11.81a1.69,1.69,0,0,1-1.69-1.69,1.72,1.72,0,0,1,.49-1.19,1.75,1.75,0,0,1,2.39,0,1.69,1.69,0,0,1,.5,1.19,1.69,1.69,0,0,1-1.69,1.69Z"/><path class="cls-2" d="M56.64,3.9a1.73,1.73,0,0,1-1.2-.49A1.75,1.75,0,0,1,55,2.21,1.71,1.71,0,0,1,55.44,1a1.75,1.75,0,0,1,2.39,0A1.69,1.69,0,0,1,56.64,3.9Z"/><path class="cls-2" d="M31.32,6.12a1.67,1.67,0,0,1-1.19-.5,1.71,1.71,0,0,1-.49-1.19,1.69,1.69,0,0,1,.49-1.19,1.75,1.75,0,0,1,2.39,0A1.75,1.75,0,0,1,33,4.43a1.67,1.67,0,0,1-.5,1.19A1.66,1.66,0,0,1,31.32,6.12Z"/><path class="cls-2" d="M24.68,8.33A1.69,1.69,0,0,1,23,6.64a1.67,1.67,0,0,1,.5-1.19,1.73,1.73,0,0,1,2.38,0,1.67,1.67,0,0,1,.5,1.19,1.7,1.7,0,0,1-.5,1.2A1.72,1.72,0,0,1,24.68,8.33Z"/><path class="cls-2" d="M14.24,4.85A1.73,1.73,0,0,1,13,4.36,1.7,1.7,0,0,1,13,2a1.75,1.75,0,0,1,2.39,0,1.73,1.73,0,0,1,.5,1.19,1.74,1.74,0,0,1-.5,1.2A1.71,1.71,0,0,1,14.24,4.85Z"/><path class="cls-2" d="M3.16,6.12A1.67,1.67,0,0,1,2,5.62,1.67,1.67,0,0,1,2,3.24a1.76,1.76,0,0,1,2.39,0,1.7,1.7,0,0,1,0,2.39A1.7,1.7,0,0,1,3.16,6.12Z"/><path class="cls-2" d="M1.58,16.56a1.67,1.67,0,0,1-1.19-.5,1.67,1.67,0,0,1,0-2.38,1.75,1.75,0,0,1,2.39,0,1.71,1.71,0,0,1,.49,1.19,1.67,1.67,0,0,1-.5,1.19A1.66,1.66,0,0,1,1.58,16.56Z"/><path class="cls-2" d="M7,91.86a1.69,1.69,0,0,1-1.69-1.68A1.73,1.73,0,0,1,5.76,89a1.75,1.75,0,0,1,2.39,0,1.68,1.68,0,0,1,0,2.39A1.72,1.72,0,0,1,7,91.86Z"/><path class="cls-2" d="M42.71,90a1.69,1.69,0,0,1-1.19-2.88,1.76,1.76,0,0,1,2.39,0,1.73,1.73,0,0,1,.49,1.2A1.69,1.69,0,0,1,42.71,90Z"/><path class="cls-2" d="M50.31,93.44a1.69,1.69,0,0,1-1.2-2.88,1.76,1.76,0,0,1,2.39,0,1.69,1.69,0,0,1-1.19,2.88Z"/><path class="cls-2" d="M59.48,91.86A1.69,1.69,0,0,1,58.29,89a1.75,1.75,0,0,1,2.39,0,1.69,1.69,0,0,1-1.2,2.88Z"/><path class="cls-2" d="M67.71,91.86A1.69,1.69,0,0,1,66,90.18a1.73,1.73,0,0,1,.49-1.2,1.76,1.76,0,0,1,2.39,0,1.69,1.69,0,0,1-1.19,2.88Z"/><path class="cls-2" d="M79.1,93.76a1.67,1.67,0,0,1-1.19-.5,1.66,1.66,0,0,1-.5-1.19,1.67,1.67,0,0,1,.5-1.19,1.73,1.73,0,0,1,2.38,0,1.67,1.67,0,0,1,.5,1.19,1.69,1.69,0,0,1-1.69,1.69Z"/><path class="cls-2" d="M89.23,93.76A1.69,1.69,0,0,1,88,90.88a1.75,1.75,0,0,1,2.39,0,1.71,1.71,0,0,1,.49,1.19,1.69,1.69,0,0,1-1.68,1.69Z"/><path class="cls-2" d="M89.23,72.25A1.69,1.69,0,0,1,88,69.37a1.75,1.75,0,0,1,2.39,0,1.69,1.69,0,0,1,.49,1.19,1.72,1.72,0,0,1-.49,1.19A1.69,1.69,0,0,1,89.23,72.25Z"/><path class="cls-2" d="M86.7,51.05a1.69,1.69,0,0,1-1.2-2.88,1.74,1.74,0,0,1,2.39,0,1.69,1.69,0,0,1,.49,1.19,1.69,1.69,0,0,1-1.68,1.69Z"/><path class="cls-2" d="M89.23,17.19A1.69,1.69,0,0,1,88,14.31a1.75,1.75,0,0,1,2.39,0,1.71,1.71,0,0,1,.49,1.19,1.69,1.69,0,0,1-1.68,1.69Z"/><path class="cls-2" d="M18.67,4.18A2,2,0,0,1,17.28.82a2,2,0,0,1,2.78,0,2,2,0,0,1,0,2.78A2,2,0,0,1,18.67,4.18Z"/><path class="cls-2" d="M76.25,95.24a2.53,2.53,0,0,1-2.53-2.54,2.54,2.54,0,0,1,.74-1.78,2.61,2.61,0,0,1,3.58,0,2.55,2.55,0,0,1,0,3.59A2.54,2.54,0,0,1,76.25,95.24Z"/><path class="cls-2" d="M65.5,93.65a2.53,2.53,0,0,1-1.79-4.32,2.61,2.61,0,0,1,3.57,0,2.53,2.53,0,0,1-1.78,4.32Z"/><path class="cls-2" d="M36.07,93.13a1.71,1.71,0,0,1-1.69-1.69,1.66,1.66,0,0,1,.5-1.19,1.73,1.73,0,0,1,2.38,0,1.66,1.66,0,0,1,.5,1.19,1.71,1.71,0,0,1-1.69,1.69Z"/><path class="cls-2" d="M22.78,93.44a1.68,1.68,0,0,1-1.19-2.88,1.73,1.73,0,0,1,2.38,0,1.69,1.69,0,0,1-1.19,2.88Z"/><path class="cls-2" d="M2.21,74.14A1.71,1.71,0,0,1,1,73.65a1.7,1.7,0,0,1,0-2.39,1.76,1.76,0,0,1,2.39,0,1.7,1.7,0,0,1,0,2.39A1.73,1.73,0,0,1,2.21,74.14Z"/><path class="cls-2" d="M54.11,29.85A1.69,1.69,0,0,1,52.91,27a1.75,1.75,0,0,1,2.39,0,1.69,1.69,0,0,1-1.19,2.88Z"/><path class="cls-2" d="M64.55,30.69A2.54,2.54,0,0,1,62.76,30a2.51,2.51,0,0,1,0-3.58,2.61,2.61,0,0,1,3.57,0,2.51,2.51,0,0,1,0,3.58A2.54,2.54,0,0,1,64.55,30.69Z"/><path class="cls-2" d="M43.66,46.51a2.53,2.53,0,0,1-1.79-4.32,2.62,2.62,0,0,1,3.58,0,2.53,2.53,0,0,1-1.79,4.32Z"/><path class="cls-2" d="M47.78,48.48a2,2,0,0,1-1.4-3.36,2.05,2.05,0,0,1,2.79,0,2,2,0,0,1-1.39,3.36Z"/><path class="cls-2" d="M43.66,30.76a2,2,0,0,1-1.39-3.36,2,2,0,0,1,2.78,0,2,2,0,0,1-1.39,3.36Z"/><path class="cls-2" d="M41.76,23.8a2,2,0,0,1-1.39-3.36,2,2,0,0,1,2.79,0,2,2,0,0,1-1.4,3.36Z"/><path class="cls-2" d="M36.7,46.62a1.67,1.67,0,0,1-1.19-.5,1.72,1.72,0,0,1-.5-1.19,1.67,1.67,0,0,1,.5-1.19,1.68,1.68,0,0,1,2.88,1.19,1.67,1.67,0,0,1-.5,1.19A1.66,1.66,0,0,1,36.7,46.62Z"/><path class="cls-2" d="M26.26,40.29a1.68,1.68,0,0,1-1.19-2.88,1.73,1.73,0,0,1,2.38,0,1.67,1.67,0,0,1,0,2.38A1.66,1.66,0,0,1,26.26,40.29Z"/><path class="cls-2" d="M27.84,36.18a1.72,1.72,0,0,1-1.19-.5,1.67,1.67,0,0,1-.5-1.19,1.7,1.7,0,0,1,.5-1.2,1.74,1.74,0,0,1,2.38,0,1.7,1.7,0,0,1,.5,1.2,1.67,1.67,0,0,1-.5,1.19A1.7,1.7,0,0,1,27.84,36.18Z"/><path class="cls-2" d="M27.21,31.75a1.66,1.66,0,0,1-1.19-.5,1.67,1.67,0,0,1-.5-1.19,1.75,1.75,0,0,1,.49-1.2,1.77,1.77,0,0,1,2.39,0,1.71,1.71,0,0,1,.5,1.2,1.71,1.71,0,0,1-1.69,1.69Z"/><path class="cls-2" d="M35.12,32.38a1.71,1.71,0,0,1-1.69-1.69,1.66,1.66,0,0,1,.5-1.19,1.73,1.73,0,0,1,2.38,0,1.67,1.67,0,0,1,0,2.38A1.66,1.66,0,0,1,35.12,32.38Z"/><path class="cls-2" d="M63.28,51.68a1.66,1.66,0,0,1-1.19-.5,1.67,1.67,0,0,1,0-2.38,1.73,1.73,0,0,1,2.38,0A1.67,1.67,0,0,1,65,50a1.71,1.71,0,0,1-1.69,1.69Z"/><path class="cls-2" d="M62.65,58.64a1.75,1.75,0,0,1-1.2-.49A1.73,1.73,0,0,1,61,57a1.71,1.71,0,0,1,.49-1.19,1.75,1.75,0,0,1,2.39,0,1.67,1.67,0,0,1,.5,1.19,1.69,1.69,0,0,1-1.69,1.69Z"/><path class="cls-2" d="M61.07,38.71a1.69,1.69,0,0,1-1.2-2.88,1.75,1.75,0,0,1,2.39,0A1.69,1.69,0,0,1,62.75,37a1.69,1.69,0,0,1-1.68,1.69Z"/><path class="cls-2" d="M66.13,42.19a1.71,1.71,0,0,1-1.69-1.69,1.66,1.66,0,0,1,.5-1.19,1.72,1.72,0,0,1,2.38,0,1.66,1.66,0,0,1,.5,1.19,1.71,1.71,0,0,1-1.69,1.69Z"/><path class="cls-2" d="M71.19,61.49A1.71,1.71,0,0,1,69.5,59.8a1.66,1.66,0,0,1,.5-1.19,1.73,1.73,0,0,1,2.38,0,1.66,1.66,0,0,1,.5,1.19,1.67,1.67,0,0,1-.5,1.19A1.66,1.66,0,0,1,71.19,61.49Z"/><path class="cls-2" d="M72.77,55.16a1.67,1.67,0,0,1-1.19-.5,1.69,1.69,0,0,1,0-2.38,1.75,1.75,0,0,1,2.39,0,1.69,1.69,0,0,1-1.2,2.88Z"/><path class="cls-2" d="M79.1,49.78a1.67,1.67,0,0,1-1.19-.5,1.66,1.66,0,0,1-.5-1.19,1.67,1.67,0,0,1,.5-1.19,1.73,1.73,0,0,1,2.38,0,1.67,1.67,0,0,1,.5,1.19,1.71,1.71,0,0,1-1.69,1.69Z"/><path class="cls-2" d="M77.83,45.67a1.67,1.67,0,0,1-1.19-.5A1.71,1.71,0,0,1,76.15,44a1.69,1.69,0,0,1,.49-1.19,1.75,1.75,0,0,1,2.39,0A1.69,1.69,0,0,1,79.52,44a1.69,1.69,0,0,1-1.69,1.69Z"/><path class="cls-2" d="M86.7,40.6a1.69,1.69,0,0,1-1.2-2.88,1.76,1.76,0,0,1,2.39,0A1.69,1.69,0,0,1,86.7,40.6Z"/><path class="cls-2" d="M83.21,48.83A1.71,1.71,0,0,1,82,48.34a1.73,1.73,0,0,1-.49-1.2A1.66,1.66,0,0,1,82,46a1.75,1.75,0,0,1,2.39,0,1.71,1.71,0,0,1,.49,1.19,1.69,1.69,0,0,1-1.69,1.69Z"/><path class="cls-2" d="M85.75,52.35a1.43,1.43,0,0,1-1-.41,1.45,1.45,0,0,1-.41-1,1.41,1.41,0,0,1,.41-1,1.45,1.45,0,0,1,2,0,1.41,1.41,0,0,1,.41,1,1.45,1.45,0,0,1-.41,1A1.41,1.41,0,0,1,85.75,52.35Z"/><path class="cls-2" d="M70.88,16.24a1.67,1.67,0,0,1-1.69-1.69,1.71,1.71,0,0,1,.49-1.19,1.76,1.76,0,0,1,2.39,0,1.71,1.71,0,0,1,.49,1.19,1.67,1.67,0,0,1-1.68,1.69Z"/><path class="cls-2" d="M73.4,17.19a1.67,1.67,0,0,1-1.68-1.69,1.71,1.71,0,0,1,.49-1.19,1.75,1.75,0,0,1,2.39,0,1.71,1.71,0,0,1,.49,1.19,1.67,1.67,0,0,1-1.69,1.69Z"/><path class="cls-2" d="M82.9,15.61a1.66,1.66,0,0,1-1.19-.5,1.67,1.67,0,0,1-.5-1.19,1.71,1.71,0,0,1,.49-1.19,1.75,1.75,0,0,1,2.39,0,1.69,1.69,0,0,1-1.19,2.88Z"/><path class="cls-2" d="M87.33,20.67A1.67,1.67,0,0,1,85.64,19a1.67,1.67,0,0,1,.5-1.19,1.73,1.73,0,0,1,2.38,0A1.67,1.67,0,0,1,89,19a1.69,1.69,0,0,1-1.69,1.69Z"/><path class="cls-2" d="M74,8.65a1.66,1.66,0,0,1-1.19-.5A1.67,1.67,0,0,1,72.35,7a1.71,1.71,0,0,1,.49-1.19,1.75,1.75,0,0,1,2.39,0A1.69,1.69,0,0,1,74,8.65Z"/><path class="cls-2" d="M36.39,6.43A1.67,1.67,0,0,1,34.7,4.75a1.71,1.71,0,0,1,.49-1.2,1.75,1.75,0,0,1,2.39,0,1.7,1.7,0,0,1,0,2.39A1.71,1.71,0,0,1,36.39,6.43Z"/><path class="cls-2" d="M36.07,14a1.71,1.71,0,0,1-1.69-1.69,1.66,1.66,0,0,1,.5-1.19,1.73,1.73,0,0,1,2.38,0A1.69,1.69,0,0,1,36.07,14Z"/><path class="cls-2" d="M38.6,15a1.71,1.71,0,0,1-1.69-1.69,1.7,1.7,0,0,1,.5-1.2,1.76,1.76,0,0,1,2.38,0,1.71,1.71,0,0,1,.5,1.2,1.67,1.67,0,0,1-.5,1.19A1.7,1.7,0,0,1,38.6,15Z"/><path class="cls-2" d="M44.93,12.44a1.69,1.69,0,0,1-1.69-1.68,1.73,1.73,0,0,1,.49-1.2,1.75,1.75,0,0,1,2.39,0,1.69,1.69,0,0,1-1.19,2.88Z"/><path class="cls-2" d="M33.85,21.94a1.69,1.69,0,0,1-1.19-2.88,1.75,1.75,0,0,1,2.39,0,1.69,1.69,0,0,1,.49,1.19,1.69,1.69,0,0,1-1.69,1.69Z"/><path class="cls-2" d="M57,20.67a1.71,1.71,0,0,1-1.19-.49,1.74,1.74,0,0,1-.5-1.2,1.72,1.72,0,0,1,.5-1.19,1.75,1.75,0,0,1,2.39,0A1.71,1.71,0,0,1,58.64,19,1.67,1.67,0,0,1,57,20.67Z"/><path class="cls-2" d="M60.12,20a1.69,1.69,0,0,1-1.2-2.88,1.75,1.75,0,0,1,2.39,0,1.69,1.69,0,0,1,0,2.38A1.67,1.67,0,0,1,60.12,20Z"/><path class="cls-2" d="M18,18.14a1.67,1.67,0,0,1-1.68-1.69,1.71,1.71,0,0,1,.49-1.19,1.75,1.75,0,0,1,2.39,0,1.71,1.71,0,0,1,.49,1.19A1.67,1.67,0,0,1,18,18.14Z"/><path class="cls-2" d="M24.68,11.81a1.68,1.68,0,0,1-1.19-2.88,1.73,1.73,0,0,1,2.38,0,1.67,1.67,0,0,1,.5,1.19,1.69,1.69,0,0,1-1.69,1.69Z"/><path class="cls-2" d="M26.58,13.71a1.73,1.73,0,0,1-1.2-.49,1.75,1.75,0,0,1-.49-1.2,1.71,1.71,0,0,1,.49-1.19,1.75,1.75,0,0,1,2.39,0A1.71,1.71,0,0,1,28.26,12a1.67,1.67,0,0,1-1.68,1.69Z"/><path class="cls-2" d="M16.77,7.38a1.69,1.69,0,0,1-1.2-2.88A1.75,1.75,0,0,1,18,4.5a1.69,1.69,0,0,1-1.19,2.88Z"/><path class="cls-2" d="M4.11,14a1.71,1.71,0,0,1-1.69-1.69,1.66,1.66,0,0,1,.5-1.19,1.76,1.76,0,0,1,2.39,0,1.75,1.75,0,0,1,.49,1.2A1.69,1.69,0,0,1,4.11,14Z"/><path class="cls-2" d="M6.64,16.87a1.72,1.72,0,0,1-1.19-.49A1.71,1.71,0,0,1,5,15.19,1.73,1.73,0,0,1,5.45,14a1.76,1.76,0,0,1,2.39,0,1.73,1.73,0,0,1,.49,1.2,1.71,1.71,0,0,1-.49,1.19A1.73,1.73,0,0,1,6.64,16.87Z"/><path class="cls-2" d="M6.64,21a1.67,1.67,0,0,1-1.19-.5,1.69,1.69,0,0,1,0-2.38,1.75,1.75,0,0,1,2.39,0,1.69,1.69,0,0,1,0,2.38A1.68,1.68,0,0,1,6.64,21Z"/><path class="cls-2" d="M6.64,25.42a1.69,1.69,0,0,1-1.19-2.88,1.75,1.75,0,0,1,2.39,0,1.69,1.69,0,0,1,.49,1.19,1.69,1.69,0,0,1-1.69,1.69Z"/><path class="cls-2" d="M7.91,25.42a1.71,1.71,0,0,1-1.69-1.69,1.66,1.66,0,0,1,.5-1.19,1.73,1.73,0,0,1,2.38,0,1.66,1.66,0,0,1,.5,1.19,1.71,1.71,0,0,1-1.69,1.69Z"/><path class="cls-2" d="M8.54,23.52a1.68,1.68,0,0,1-1.19-2.88,1.75,1.75,0,0,1,2.39,0,1.71,1.71,0,0,1,.49,1.19A1.67,1.67,0,0,1,9.73,23,1.66,1.66,0,0,1,8.54,23.52Z"/><path class="cls-2" d="M13.6,21.94a1.69,1.69,0,0,1-1.19-2.88,1.75,1.75,0,0,1,2.39,0,1.69,1.69,0,0,1-1.2,2.88Z"/><path class="cls-2" d="M16.45,23.83A1.68,1.68,0,0,1,15.26,21a1.76,1.76,0,0,1,2.39,0,1.69,1.69,0,0,1-1.2,2.88Z"/><path class="cls-2" d="M16.14,29.53a1.73,1.73,0,0,1-1.2-.49,1.75,1.75,0,0,1-.49-1.2,1.71,1.71,0,0,1,.49-1.19,1.75,1.75,0,0,1,2.39,0,1.71,1.71,0,0,1,.49,1.19,1.67,1.67,0,0,1-1.68,1.69Z"/><path class="cls-2" d="M15.5,33.33a1.69,1.69,0,0,1-1.19-.5,1.67,1.67,0,0,1,0-2.38,1.68,1.68,0,0,1,2.88,1.19,1.69,1.69,0,0,1-1.69,1.69Z"/><path class="cls-2" d="M18.35,32.69a1.71,1.71,0,0,1-1.19-.49,1.67,1.67,0,0,1-.5-1.19,1.7,1.7,0,0,1,.5-1.2,1.73,1.73,0,0,1,2.38,0A1.7,1.7,0,0,1,20,31a1.67,1.67,0,0,1-.5,1.19A1.71,1.71,0,0,1,18.35,32.69Z"/><path class="cls-2" d="M25.31,26.05a1.69,1.69,0,0,1-1.69-1.69,1.67,1.67,0,0,1,.5-1.19,1.75,1.75,0,0,1,2.39,0A1.72,1.72,0,0,1,27,24.36a1.69,1.69,0,0,1-1.69,1.69Z"/><path class="cls-2" d="M37,20a1.71,1.71,0,0,1-1.69-1.69,1.66,1.66,0,0,1,.5-1.19,1.73,1.73,0,0,1,2.38,0A1.69,1.69,0,0,1,37,20Z"/><path class="cls-2" d="M20.57,40.92a1.67,1.67,0,0,1-1.69-1.69A1.71,1.71,0,0,1,19.37,38a1.75,1.75,0,0,1,2.39,0,1.71,1.71,0,0,1,.49,1.19,1.67,1.67,0,0,1-1.68,1.69Z"/><path class="cls-2" d="M21.51,49.78a1.69,1.69,0,0,1-1.19-2.88,1.75,1.75,0,0,1,2.39,0,1.71,1.71,0,0,1,.49,1.19,1.69,1.69,0,0,1-1.69,1.69Z"/><path class="cls-2" d="M17.08,51.68A1.69,1.69,0,0,1,15.4,50a1.71,1.71,0,0,1,.49-1.19,1.75,1.75,0,0,1,2.39,0A1.71,1.71,0,0,1,18.77,50a1.69,1.69,0,0,1-1.69,1.69Z"/><path class="cls-2" d="M22.15,53.26a1.67,1.67,0,0,1-1.69-1.69A1.71,1.71,0,0,1,21,50.38a1.75,1.75,0,0,1,2.39,0,1.67,1.67,0,0,1,.5,1.19,1.69,1.69,0,0,1-1.69,1.69Z"/><path class="cls-2" d="M24.36,49.47a1.72,1.72,0,0,1-1.19-.5,1.68,1.68,0,0,1,0-2.39,1.76,1.76,0,0,1,2.39,0,1.73,1.73,0,0,1,.49,1.2,1.67,1.67,0,0,1-.5,1.19A1.7,1.7,0,0,1,24.36,49.47Z"/><path class="cls-2" d="M29.11,48.09a2.53,2.53,0,0,1-1.79-4.32,2.62,2.62,0,0,1,3.58,0,2.53,2.53,0,0,1-1.79,4.32Z"/><path class="cls-2" d="M9.81,49.36A2.53,2.53,0,0,1,8,45a2.62,2.62,0,0,1,3.58,0,2.53,2.53,0,0,1-1.79,4.32Z"/><path class="cls-2" d="M13.29,57.9a2.53,2.53,0,0,1-1.79-4.32,2.62,2.62,0,0,1,3.58,0,2.53,2.53,0,0,1-1.79,4.32Z"/><path class="cls-2" d="M30.37,59.8a2.53,2.53,0,0,1-2.53-2.53,2.54,2.54,0,0,1,.74-1.79,2.62,2.62,0,0,1,3.58,0,2.53,2.53,0,0,1-1.79,4.32Z"/><path class="cls-2" d="M35.75,56A2.53,2.53,0,0,1,34,51.68a2.62,2.62,0,0,1,3.58,0A2.53,2.53,0,0,1,35.75,56Z"/><path class="cls-2" d="M42.4,65.49A2.53,2.53,0,0,1,39.87,63a2.58,2.58,0,0,1,.74-1.79,2.62,2.62,0,0,1,3.58,0,2.53,2.53,0,0,1-1.79,4.32Z"/><path class="cls-2" d="M38.6,74.67a2.53,2.53,0,0,1-1.79-4.32,2.62,2.62,0,0,1,3.58,0,2.53,2.53,0,0,1-1.79,4.32Z"/><path class="cls-2" d="M13.29,82.34a2,2,0,0,1-2-2A2,2,0,0,1,11.9,79a2,2,0,0,1,2.78,0,2,2,0,0,1,0,2.79A2,2,0,0,1,13.29,82.34Z"/><path class="cls-2" d="M22.46,74a2.53,2.53,0,0,1-1.79-4.32,2.6,2.6,0,0,1,3.58,0A2.54,2.54,0,0,1,25,71.51a2.58,2.58,0,0,1-.74,1.79A2.54,2.54,0,0,1,22.46,74Z"/><path class="cls-2" d="M16.45,65.81a2.53,2.53,0,0,1-1.79-4.32,2.62,2.62,0,0,1,3.58,0,2.53,2.53,0,0,1-1.79,4.32Z"/><path class="cls-2" d="M22.15,62.33A2.53,2.53,0,0,1,20.36,58a2.61,2.61,0,0,1,3.58,0,2.53,2.53,0,0,1-1.79,4.32Z"/><path class="cls-2" d="M27.84,57.58a2.53,2.53,0,0,1-2.53-2.53,2.58,2.58,0,0,1,.74-1.79,2.62,2.62,0,0,1,3.58,0,2.58,2.58,0,0,1,.74,1.79,2.53,2.53,0,0,1-2.53,2.53Z"/><path class="cls-2" d="M29.5,76.41a2.51,2.51,0,0,1-1.79-.75,2.53,2.53,0,0,1,0-3.58,2.62,2.62,0,0,1,3.58,0,2.54,2.54,0,0,1-1.79,4.33Z"/><path class="cls-2" d="M66.13,75.73A1.71,1.71,0,0,1,64.44,74a1.66,1.66,0,0,1,.5-1.19,1.73,1.73,0,0,1,2.38,0,1.66,1.66,0,0,1,.5,1.19,1.71,1.71,0,0,1-1.69,1.69Z"/><path class="cls-2" d="M73.72,71.93a1.68,1.68,0,0,1-1.19-2.88,1.73,1.73,0,0,1,2.38,0,1.69,1.69,0,0,1-1.19,2.88Z"/><path class="cls-2" d="M62,67.5A1.71,1.71,0,0,1,60.82,67a1.74,1.74,0,0,1-.5-1.2,1.67,1.67,0,0,1,.5-1.19,1.75,1.75,0,0,1,2.39,0,1.71,1.71,0,0,1,.49,1.19,1.75,1.75,0,0,1-.49,1.2A1.73,1.73,0,0,1,62,67.5Z"/><path class="cls-2" d="M53.79,61.8a1.73,1.73,0,0,1-1.2-.49,1.71,1.71,0,0,1-.49-1.19,1.73,1.73,0,0,1,.49-1.2,1.75,1.75,0,0,1,2.39,0,1.68,1.68,0,0,1,0,2.39A1.71,1.71,0,0,1,53.79,61.8Z"/><path class="cls-2" d="M51.26,57.69a1.69,1.69,0,0,1-1.2-2.88,1.75,1.75,0,0,1,2.39,0A1.67,1.67,0,0,1,53,56a1.69,1.69,0,0,1-1.69,1.69Z"/><path class="cls-2" d="M47.78,42.19a1.69,1.69,0,0,1-1.2-2.88,1.74,1.74,0,0,1,2.39,0,1.69,1.69,0,0,1-1.19,2.88Z"/><path class="cls-2" d="M55.69,39.34a1.73,1.73,0,0,1-1.2-.49,1.75,1.75,0,0,1-.49-1.2,1.71,1.71,0,0,1,.49-1.19,1.75,1.75,0,0,1,2.39,0,1.69,1.69,0,0,1-1.19,2.88Z"/><path class="cls-2" d="M14.87,42.19a1.71,1.71,0,0,1-1.69-1.69,1.7,1.7,0,0,1,.5-1.2,1.76,1.76,0,0,1,2.38,0,1.7,1.7,0,0,1,.5,1.2,1.71,1.71,0,0,1-1.69,1.69Z"/><path class="cls-2" d="M25,51.68a1.71,1.71,0,0,1-1.19-.49,1.75,1.75,0,0,1-.49-1.2,1.71,1.71,0,0,1,.49-1.19,1.75,1.75,0,0,1,2.39,0A1.71,1.71,0,0,1,26.68,50,1.67,1.67,0,0,1,25,51.68Z"/><path class="cls-2" d="M42.4,80.47a1.67,1.67,0,0,1-1.69-1.68,1.71,1.71,0,0,1,.49-1.2,1.75,1.75,0,0,1,2.39,0,1.69,1.69,0,0,1-1.19,2.88Z"/><path class="cls-2" d="M46.83,81.1a1.69,1.69,0,0,1-1.69-1.68,1.73,1.73,0,0,1,.49-1.2,1.76,1.76,0,0,1,2.39,0,1.69,1.69,0,0,1-1.19,2.88Z"/><path class="cls-2" d="M50.94,78.57a1.69,1.69,0,0,1-1.69-1.68,1.68,1.68,0,0,1,.5-1.2,1.73,1.73,0,0,1,2.38,0,1.69,1.69,0,0,1-1.19,2.88Z"/><path class="cls-2" d="M57.58,78.89A1.69,1.69,0,0,1,55.9,77.2,1.71,1.71,0,0,1,56.39,76a1.75,1.75,0,0,1,2.39,0,1.71,1.71,0,0,1,.49,1.19,1.69,1.69,0,0,1-1.69,1.69Z"/><path class="cls-2" d="M59.17,83.32A1.69,1.69,0,0,1,58,80.44a1.75,1.75,0,0,1,2.39,0,1.67,1.67,0,0,1,0,2.38A1.67,1.67,0,0,1,59.17,83.32Z"/><path class="cls-2" d="M66.13,84.9a1.69,1.69,0,0,1-1.69-1.69,1.67,1.67,0,0,1,.5-1.19,1.73,1.73,0,0,1,2.38,0,1.67,1.67,0,0,1,.5,1.19,1.69,1.69,0,0,1-1.69,1.69Z"/><path class="cls-2" d="M54.11,89.33a1.69,1.69,0,0,1-1.69-1.69,1.71,1.71,0,0,1,.49-1.19,1.75,1.75,0,0,1,2.39,0,1.71,1.71,0,0,1,.49,1.19,1.67,1.67,0,0,1-1.68,1.69Z"/><path class="cls-2" d="M77.83,75.73a1.67,1.67,0,0,1-1.19-.5A1.71,1.71,0,0,1,76.15,74a1.73,1.73,0,0,1,.49-1.2,1.77,1.77,0,0,1,2.39,0,1.73,1.73,0,0,1,.49,1.2,1.69,1.69,0,0,1-1.69,1.69Z"/><path class="cls-2" d="M80.37,67.5a1.69,1.69,0,0,1-1.2-2.88,1.75,1.75,0,0,1,2.39,0,1.71,1.71,0,0,1,.49,1.19,1.69,1.69,0,0,1-1.68,1.69Z"/><path class="cls-2" d="M69.92,66.87a1.67,1.67,0,0,1-1.19-.5,1.71,1.71,0,0,1-.49-1.19A1.69,1.69,0,0,1,68.73,64a1.74,1.74,0,0,1,2.39,0,1.69,1.69,0,0,1-1.2,2.88Z"/><path class="cls-2" d="M82.58,77.94a1.69,1.69,0,0,1-1.19-2.88,1.75,1.75,0,0,1,2.39,0,1.71,1.71,0,0,1,.49,1.19,1.69,1.69,0,0,1-1.69,1.69Z"/><path class="cls-2" d="M85.75,71a1.69,1.69,0,0,1-1.2-2.88,1.75,1.75,0,0,1,2.39,0A1.69,1.69,0,0,1,85.75,71Z"/><path class="cls-2" d="M83.85,91.86a1.73,1.73,0,0,1-1.2-.49,1.71,1.71,0,0,1-.49-1.19,1.73,1.73,0,0,1,.49-1.2A1.75,1.75,0,0,1,85,89a1.69,1.69,0,0,1-1.19,2.88Z"/><path class="cls-2" d="M3.8,55.48A1.69,1.69,0,0,1,2.6,52.6a1.76,1.76,0,0,1,2.39,0,1.75,1.75,0,0,1,.49,1.2A1.69,1.69,0,0,1,3.8,55.48Z"/><path class="cls-2" d="M5.38,57.69a1.69,1.69,0,0,1-1.2-2.88,1.75,1.75,0,0,1,2.39,0A1.67,1.67,0,0,1,7.07,56a1.7,1.7,0,0,1-.5,1.2A1.72,1.72,0,0,1,5.38,57.69Z"/><path class="cls-2" d="M6,69.08a1.69,1.69,0,0,1-1.69-1.69,1.67,1.67,0,0,1,.5-1.19,1.73,1.73,0,0,1,2.38,0,1.67,1.67,0,0,1,.5,1.19A1.69,1.69,0,0,1,6,69.08Z"/><path class="cls-2" d="M10.12,60.22a1.71,1.71,0,0,1-1.19-.49,1.7,1.7,0,0,1,0-2.39,1.75,1.75,0,0,1,2.39,0,1.69,1.69,0,0,1-1.2,2.88Z"/><path class="cls-2" d="M12,64.33a1.68,1.68,0,0,1-1.19-2.88,1.76,1.76,0,0,1,2.39,0,1.73,1.73,0,0,1,.49,1.2,1.71,1.71,0,0,1-.49,1.19A1.73,1.73,0,0,1,12,64.33Z"/><path class="cls-2" d="M1.9,87.12A1.69,1.69,0,0,1,.7,84.24a1.75,1.75,0,0,1,2.39,0,1.67,1.67,0,0,1,0,2.38A1.69,1.69,0,0,1,1.9,87.12Z"/><path class="cls-2" d="M7.28,81.74a1.69,1.69,0,0,1-1.2-2.88,1.75,1.75,0,0,1,2.39,0,1.69,1.69,0,0,1,0,2.38A1.67,1.67,0,0,1,7.28,81.74Z"/><path class="cls-2" d="M79.1,2.64a1.67,1.67,0,0,1-1.19-.5A1.66,1.66,0,0,1,77.41,1a1.7,1.7,0,0,1,.5-1.2,1.76,1.76,0,0,1,2.38,0,1.7,1.7,0,0,1,.5,1.2,1.67,1.67,0,0,1-.5,1.19A1.7,1.7,0,0,1,79.1,2.64Z"/><path class="cls-2" d="M92.07,9.49a2.58,2.58,0,0,1-1.79-.74,2.53,2.53,0,0,1,0-3.58,2.62,2.62,0,0,1,3.58,0,2.51,2.51,0,0,1,0,3.58A2.54,2.54,0,0,1,92.07,9.49Z"/><path class="cls-2" d="M91.44,34.8a2.53,2.53,0,0,1-1.79-4.32,2.62,2.62,0,0,1,3.58,0,2.53,2.53,0,0,1-1.79,4.32Z"/><path class="cls-2" d="M90.49,52.84a2.53,2.53,0,0,1-1.79-4.32,2.62,2.62,0,0,1,3.58,0,2.53,2.53,0,0,1-1.79,4.32Z"/><path class="cls-2" d="M92.07,62a2.58,2.58,0,0,1-1.79-.74,2.54,2.54,0,0,1-.74-1.79,2.58,2.58,0,0,1,.74-1.79,2.62,2.62,0,0,1,3.58,0,2.55,2.55,0,0,1,.75,1.79,2.51,2.51,0,0,1-.75,1.79A2.54,2.54,0,0,1,92.07,62Z"/><path class="cls-2" d="M92.07,70.24a2.53,2.53,0,0,1-1.79-4.32,2.61,2.61,0,0,1,3.58,0,2.51,2.51,0,0,1,0,3.58A2.54,2.54,0,0,1,92.07,70.24Z"/><path class="cls-2" d="M90.17,81.07a2,2,0,0,1-1.39-3.36,2.05,2.05,0,0,1,2.79,0,2,2,0,0,1-1.4,3.36Z"/><path class="cls-2" d="M92.71,16.56a1.69,1.69,0,0,1-1.2-2.88,1.75,1.75,0,0,1,2.39,0,1.69,1.69,0,0,1-1.19,2.88Z"/><path class="cls-2" d="M91.13,27.32a1.69,1.69,0,0,1-1.69-1.69,1.73,1.73,0,0,1,.49-1.2,1.75,1.75,0,0,1,2.39,0,1.7,1.7,0,0,1,0,2.39A1.69,1.69,0,0,1,91.13,27.32Z"/><path class="cls-2" d="M90.81,46.3a1.69,1.69,0,0,1-1.2-2.88,1.75,1.75,0,0,1,2.39,0,1.66,1.66,0,0,1,.49,1.19,1.69,1.69,0,0,1-.49,1.2A1.71,1.71,0,0,1,90.81,46.3Z"/><path class="cls-2" d="M91.44,77a1.68,1.68,0,0,1-1.19-2.88,1.73,1.73,0,0,1,2.38,0,1.67,1.67,0,0,1,.5,1.19A1.67,1.67,0,0,1,91.44,77Z"/><path class="cls-2" d="M90.49,25.31A2.53,2.53,0,0,1,88.7,21a2.62,2.62,0,0,1,3.58,0,2.53,2.53,0,0,1-1.79,4.32Z"/><path class="cls-2" d="M90.49,10.12A2.53,2.53,0,0,1,88.7,5.8a2.62,2.62,0,0,1,3.58,0,2.53,2.53,0,0,1-1.79,4.32Z"/><path class="cls-2" d="M89.23,83.32a1.67,1.67,0,0,1-1.69-1.69A1.71,1.71,0,0,1,88,80.44a1.75,1.75,0,0,1,2.39,0,1.71,1.71,0,0,1,.49,1.19,1.75,1.75,0,0,1-.49,1.2A1.72,1.72,0,0,1,89.23,83.32Z"/><path class="cls-2" d="M89.86,59.09a.85.85,0,0,1-.62-.26.87.87,0,0,1-.26-.61.88.88,0,0,1,1.5-.62.89.89,0,0,1,.25.62.9.9,0,0,1-.25.62A.89.89,0,0,1,89.86,59.09Z"/><path class="cls-2" d="M89.23,72.25A1.69,1.69,0,0,1,88,69.37a1.75,1.75,0,0,1,2.39,0,1.69,1.69,0,0,1,.49,1.19,1.72,1.72,0,0,1-.49,1.19A1.69,1.69,0,0,1,89.23,72.25Z"/><path class="cls-2" d="M89.23,17.19A1.69,1.69,0,0,1,88,14.31a1.75,1.75,0,0,1,2.39,0,1.71,1.71,0,0,1,.49,1.19,1.69,1.69,0,0,1-1.68,1.69Z"/><path class="cls-2" d="M91.13,8a1.74,1.74,0,0,1-1.2-.5,1.71,1.71,0,0,1-.49-1.19,1.73,1.73,0,0,1,.49-1.2,1.77,1.77,0,0,1,2.39,0,1.73,1.73,0,0,1,.49,1.2,1.71,1.71,0,0,1-.49,1.19A1.73,1.73,0,0,1,91.13,8Z"/><path class="cls-2" d="M91.13,37.44a1.67,1.67,0,0,1-1.69-1.69,1.71,1.71,0,0,1,.49-1.19,1.75,1.75,0,0,1,2.39,0,1.71,1.71,0,0,1,.49,1.19,1.75,1.75,0,0,1-.49,1.2A1.72,1.72,0,0,1,91.13,37.44Z"/><path class="cls-2" d="M90.18,39.34A1.69,1.69,0,0,1,89,36.46a1.75,1.75,0,0,1,2.39,0,1.71,1.71,0,0,1,.49,1.19,1.69,1.69,0,0,1-1.68,1.69Z"/><path class="cls-2" d="M86.38,44.08a1.71,1.71,0,0,1-1.19-.49,1.67,1.67,0,0,1-.5-1.19,1.7,1.7,0,0,1,.5-1.2,1.74,1.74,0,0,1,2.38,0,1.7,1.7,0,0,1,.5,1.2,1.67,1.67,0,0,1-.5,1.19A1.71,1.71,0,0,1,86.38,44.08Z"/><path class="cls-2" d="M92.07,42.82a1.69,1.69,0,0,1-1.19-2.88,1.75,1.75,0,0,1,2.39,0,1.69,1.69,0,0,1-1.2,2.88Z"/><path class="cls-2" d="M1,42.82a1.69,1.69,0,0,1-1.19-.49,1.71,1.71,0,0,1-.5-1.2,1.67,1.67,0,0,1,.5-1.19,1.73,1.73,0,0,1,2.38,0,1.67,1.67,0,0,1,0,2.38A1.67,1.67,0,0,1,1,42.82Z"/><path class="cls-2" d="M38.29,36.81a1.69,1.69,0,0,1-1.2-2.88,1.75,1.75,0,0,1,2.39,0,1.69,1.69,0,0,1-1.19,2.88Z"/><path class="cls-2" d="M45.24,36.18a1.69,1.69,0,0,1-1.68-1.69,1.75,1.75,0,0,1,.49-1.2,1.77,1.77,0,0,1,2.39,0,1.7,1.7,0,0,1,0,2.39A1.7,1.7,0,0,1,45.24,36.18Z"/><path class="cls-2" d="M31.32,32.06a1.69,1.69,0,0,1-1.68-1.69,1.71,1.71,0,0,1,.49-1.19,1.75,1.75,0,0,1,2.39,0A1.72,1.72,0,0,1,33,30.37a1.69,1.69,0,0,1-1.69,1.69Z"/><path class="cls-2" d="M42.71,60.26a1.38,1.38,0,0,1-1-.42,1.4,1.4,0,0,1,0-2,1.44,1.44,0,0,1,2,0,1.41,1.41,0,0,1-1,2.4Z"/><path class="cls-2" d="M20.57,87.47a1.42,1.42,0,0,1-1.41-1.41,1.41,1.41,0,0,1,.41-1,1.44,1.44,0,0,1,2,0,1.41,1.41,0,0,1,.41,1,1.43,1.43,0,0,1-.41,1A1.41,1.41,0,0,1,20.57,87.47Z"/><path class="cls-2" d="M62.65,48.52a1.7,1.7,0,0,1-1.2-2.89,1.77,1.77,0,0,1,2.39,0,1.7,1.7,0,0,1,.5,1.2,1.67,1.67,0,0,1-.5,1.19A1.72,1.72,0,0,1,62.65,48.52Z"/><path class="cls-2" d="M61.7,54.21a1.67,1.67,0,0,1-1.19-.5,1.66,1.66,0,0,1-.5-1.19,1.71,1.71,0,0,1,.49-1.19,1.75,1.75,0,0,1,2.39,0,1.69,1.69,0,0,1-1.19,2.88Z"/><path class="cls-2" d="M65.81,54.52A1.71,1.71,0,0,1,64.62,54a1.67,1.67,0,0,1-.5-1.19,1.7,1.7,0,0,1,.5-1.2,1.76,1.76,0,0,1,2.39,0,1.73,1.73,0,0,1,.49,1.2,1.69,1.69,0,0,1-1.69,1.68Z"/><path class="cls-2" d="M13.6,92.53a1.4,1.4,0,0,1-1.4-1.41,1.41,1.41,0,0,1,.41-1,1.45,1.45,0,0,1,2,0,1.41,1.41,0,0,1,.41,1,1.4,1.4,0,0,1-1.41,1.41Z"/><path class="cls-2" d="M20.25,7.42a1.41,1.41,0,0,1-1-2.4,1.45,1.45,0,0,1,2,0,1.4,1.4,0,0,1,0,2A1.38,1.38,0,0,1,20.25,7.42Z"/><path class="cls-2" d="M25.63,3.94a1.45,1.45,0,0,1-1-.41,1.43,1.43,0,0,1-.41-1,1.41,1.41,0,0,1,.41-1,1.44,1.44,0,0,1,2,0,1.41,1.41,0,0,1,.41,1,1.43,1.43,0,0,1-.41,1A1.41,1.41,0,0,1,25.63,3.94Z"/><path class="cls-2" d="M20.88,6.15a1.41,1.41,0,0,1-1-2.4,1.46,1.46,0,0,1,2,0,1.45,1.45,0,0,1,.41,1,1.38,1.38,0,0,1-.42,1A1.41,1.41,0,0,1,20.88,6.15Z"/><path class="cls-2" d="M22.15,84.3a1.4,1.4,0,0,1-1.41-1.4,1.43,1.43,0,0,1,.41-1,1.46,1.46,0,0,1,2,0,1.43,1.43,0,0,1,.41,1,1.4,1.4,0,0,1-1.4,1.4Z"/><path class="cls-2" d="M72.77,25.42a1.67,1.67,0,0,1-1.19-.5,1.71,1.71,0,0,1-.49-1.19,1.69,1.69,0,0,1,.49-1.19,1.76,1.76,0,0,1,2.39,0,1.73,1.73,0,0,1,.49,1.2,1.69,1.69,0,0,1-1.69,1.69Z"/><path class="cls-2" d="M64.23,23.2a1.69,1.69,0,0,1-1.69-1.69,1.67,1.67,0,0,1,.5-1.19,1.73,1.73,0,0,1,2.38,0,1.67,1.67,0,0,1,.5,1.19,1.69,1.69,0,0,1-1.69,1.69Z"/><path class="cls-2" d="M70.56,44.08a1.73,1.73,0,0,1-1.2-.49,1.71,1.71,0,0,1-.49-1.19,1.73,1.73,0,0,1,.49-1.2,1.76,1.76,0,0,1,2.39,0,1.7,1.7,0,0,1,.5,1.2,1.67,1.67,0,0,1-.5,1.19A1.71,1.71,0,0,1,70.56,44.08Z"/><path class="cls-2" d="M81.32,60.22a1.69,1.69,0,0,1-1.2-2.88,1.75,1.75,0,0,1,2.39,0,1.7,1.7,0,0,1,0,2.39A1.71,1.71,0,0,1,81.32,60.22Z"/><path class="cls-2" d="M76.89,53.58a1.69,1.69,0,0,1-1.2-2.88,1.74,1.74,0,0,1,2.39,0,1.69,1.69,0,0,1,.49,1.19,1.69,1.69,0,0,1-1.68,1.69Z"/><path class="cls-2" d="M20.25,27.31a1.69,1.69,0,0,1-1.69-1.68,1.73,1.73,0,0,1,.49-1.2,1.76,1.76,0,0,1,2.39,0,1.7,1.7,0,0,1,.5,1.2,1.69,1.69,0,0,1-1.69,1.68Z"/><path class="cls-2" d="M48.5,70.81a1.71,1.71,0,0,1-1.69-1.69,1.72,1.72,0,0,1,.49-1.19,1.75,1.75,0,0,1,2.39,0,1.69,1.69,0,0,1-1.19,2.88Z"/><path class="cls-2" d="M46,67.31a1.69,1.69,0,0,1-1.69-1.69,1.72,1.72,0,0,1,.49-1.19,1.75,1.75,0,0,1,2.39,0,1.67,1.67,0,0,1,.5,1.19A1.69,1.69,0,0,1,46,67.31Z"/><path class="cls-2" d="M52.5,68.31a1.69,1.69,0,0,1-1.69-1.69,1.67,1.67,0,0,1,.5-1.19,1.73,1.73,0,0,1,2.38,0,1.67,1.67,0,0,1,.5,1.19,1.69,1.69,0,0,1-1.69,1.69Z"/><path class="cls-2" d="M45.5,3.31a1.69,1.69,0,0,1-1.69-1.69,1.67,1.67,0,0,1,.5-1.19,1.73,1.73,0,0,1,2.38,0,1.68,1.68,0,0,1,0,2.39A1.71,1.71,0,0,1,45.5,3.31Z"/><path class="cls-2" d="M53.5,21.31a1.69,1.69,0,0,1-1.69-1.69,1.67,1.67,0,0,1,.5-1.19,1.73,1.73,0,0,1,2.38,0,1.67,1.67,0,0,1,.5,1.19,1.69,1.69,0,0,1-1.69,1.69Z"/><path class="cls-2" d="M48,14.31a1.69,1.69,0,0,1-1.69-1.69,1.67,1.67,0,0,1,.5-1.19,1.73,1.73,0,0,1,2.38,0,1.67,1.67,0,0,1,.5,1.19A1.69,1.69,0,0,1,48,14.31Z"/><path class="cls-2" d="M61,30.81a1.69,1.69,0,0,1-1.69-1.69,1.67,1.67,0,0,1,.5-1.19,1.73,1.73,0,0,1,2.38,0,1.67,1.67,0,0,1,.5,1.19A1.69,1.69,0,0,1,61,30.81Z"/><path class="cls-2" d="M69,35.81a1.69,1.69,0,0,1-1.69-1.69,1.67,1.67,0,0,1,.5-1.19,1.73,1.73,0,0,1,2.38,0,1.67,1.67,0,0,1,.5,1.19A1.69,1.69,0,0,1,69,35.81Z"/><path class="cls-2" d="M75,30.31a1.69,1.69,0,0,1-1.69-1.69,1.67,1.67,0,0,1,.5-1.19,1.73,1.73,0,0,1,2.38,0,1.67,1.67,0,0,1,.5,1.19A1.69,1.69,0,0,1,75,30.31Z"/><path class="cls-2" d="M25.5,67.81a1.69,1.69,0,0,1-1.69-1.69,1.71,1.71,0,0,1,.49-1.19,1.75,1.75,0,0,1,2.39,0,1.67,1.67,0,0,1,.5,1.19,1.69,1.69,0,0,1-1.69,1.69Z"/><path class="cls-2" d="M16,70.31a1.69,1.69,0,0,1-1.69-1.69,1.67,1.67,0,0,1,.5-1.19,1.73,1.73,0,0,1,2.38,0,1.67,1.67,0,0,1,.5,1.19A1.69,1.69,0,0,1,16,70.31Z"/><path class="cls-2" d="M12,75.31a1.69,1.69,0,0,1-1.69-1.69,1.67,1.67,0,0,1,.5-1.19,1.73,1.73,0,0,1,2.38,0,1.67,1.67,0,0,1,.5,1.19A1.69,1.69,0,0,1,12,75.31Z"/><path class="cls-2" d="M85.5,56.31a1.69,1.69,0,0,1-1.69-1.69,1.67,1.67,0,0,1,.5-1.19,1.73,1.73,0,0,1,2.38,0,1.67,1.67,0,0,1,.5,1.19,1.69,1.69,0,0,1-1.69,1.69Z"/><path class="cls-2" d="M91.5,55.5a.85.85,0,0,1-.62-.26.9.9,0,0,1-.26-.62.87.87,0,0,1,.26-.61.91.91,0,0,1,1.24,0,.93.93,0,0,1,.26.62.9.9,0,0,1-.26.62A.85.85,0,0,1,91.5,55.5Z"/><path class="cls-2" d="M.38,55.5a.88.88,0,0,1-.63-.26.89.89,0,0,1-.25-.62A.88.88,0,0,1-.25,54,.9.9,0,0,1,1,54a.83.83,0,0,1,.26.61.85.85,0,0,1-.26.62A.87.87,0,0,1,.38,55.5Z"/><path class="cls-2" d="M10,7.5a.85.85,0,0,1-.62-.26.88.88,0,0,1-.26-.62A.88.88,0,0,1,10.62,6a.86.86,0,0,1,.25.61.89.89,0,0,1-.25.62A.87.87,0,0,1,10,7.5Z"/><path class="cls-2" d="M11.5,14.5a.87.87,0,1,1,.88-.88.86.86,0,0,1-.27.62A.85.85,0,0,1,11.5,14.5Z"/><path class="cls-2" d="M9.5,10.5a.85.85,0,0,1-.62-.26.88.88,0,0,1-.26-.62A.88.88,0,0,1,10.12,9a.9.9,0,0,1,.25.62.89.89,0,0,1-.25.62A.87.87,0,0,1,9.5,10.5Z"/><path class="cls-2" d="M9,13.5a.85.85,0,0,1-.62-.26.9.9,0,0,1-.26-.62A.88.88,0,0,1,9.62,12a.9.9,0,0,1,.25.62.89.89,0,0,1-.25.62A.87.87,0,0,1,9,13.5Z"/><path class="cls-2" d="M27,17.5a.85.85,0,0,1-.62-.26.86.86,0,0,1,0-1.23.91.91,0,0,1,1.24,0,.92.92,0,0,1,.25.62.9.9,0,0,1-.25.62A.87.87,0,0,1,27,17.5Z"/><path class="cls-2" d="M80,22a.85.85,0,0,1-.62-.26.9.9,0,0,1-.26-.62.87.87,0,0,1,.26-.61.9.9,0,0,1,1.24,0,.87.87,0,0,1,.26.61.9.9,0,0,1-.26.62A.85.85,0,0,1,80,22Z"/><path class="cls-2" d="M80.5,25.5a.85.85,0,0,1-.62-.26.9.9,0,0,1-.26-.62.88.88,0,0,1,1.76,0,.9.9,0,0,1-.26.62A.85.85,0,0,1,80.5,25.5Z"/><path class="cls-2" d="M81.5,34.5a.85.85,0,0,1-.62-.26.88.88,0,0,1,0-1.23.88.88,0,0,1,1.5.61.9.9,0,0,1-.26.62A.85.85,0,0,1,81.5,34.5Z"/><path class="cls-2" d="M7,4.31A1.69,1.69,0,0,1,5.31,2.62,1.71,1.71,0,0,1,5.8,1.43a1.75,1.75,0,0,1,2.39,0A1.69,1.69,0,0,1,7,4.31Z"/><path class="cls-2" d="M3,3.41a1.73,1.73,0,0,1-1.2-.49,1.73,1.73,0,0,1-.49-1.2A1.67,1.67,0,0,1,1.81.53a1.73,1.73,0,0,1,2.38,0,1.68,1.68,0,0,1,0,2.39A1.71,1.71,0,0,1,3,3.41Z"/><path class="cls-2" d="M52.5,86.31a1.69,1.69,0,0,1-1.69-1.69,1.67,1.67,0,0,1,.5-1.19,1.73,1.73,0,0,1,2.38,0,1.67,1.67,0,0,1,.5,1.19,1.69,1.69,0,0,1-1.69,1.69Z"/><path class="cls-2" d="M47.5,75.31a1.69,1.69,0,0,1-1.69-1.69,1.67,1.67,0,0,1,.5-1.19,1.73,1.73,0,0,1,2.38,0,1.69,1.69,0,0,1-1.19,2.88Z"/><path class="cls-2" d="M61,4.31a1.69,1.69,0,0,1-1.69-1.69,1.67,1.67,0,0,1,.5-1.19,1.73,1.73,0,0,1,2.38,0,1.67,1.67,0,0,1,.5,1.19A1.69,1.69,0,0,1,61,4.31Z"/><path class="cls-2" d="M62.5,10.81a1.68,1.68,0,0,1-1.19-2.88,1.73,1.73,0,0,1,2.38,0,1.67,1.67,0,0,1,.5,1.19,1.69,1.69,0,0,1-1.69,1.69Z"/><path class="cls-2" d="M62.5,14.81a1.68,1.68,0,0,1-1.19-2.88,1.73,1.73,0,0,1,2.38,0,1.67,1.67,0,0,1,.5,1.19,1.69,1.69,0,0,1-1.69,1.69Z"/><path class="cls-2" d="M69,31.56a1.69,1.69,0,0,1-1.69-1.69,1.67,1.67,0,0,1,.5-1.19,1.73,1.73,0,0,1,2.38,0,1.67,1.67,0,0,1,.5,1.19A1.69,1.69,0,0,1,69,31.56Z"/><path class="cls-2" d="M28.25,24.31a1.69,1.69,0,0,1-1.69-1.69,1.72,1.72,0,0,1,.49-1.19,1.75,1.75,0,0,1,2.39,0,1.67,1.67,0,0,1,.5,1.19,1.7,1.7,0,0,1-.5,1.2A1.72,1.72,0,0,1,28.25,24.31Z"/><path class="cls-2" d="M30.75,23.31a1.69,1.69,0,0,1-1.69-1.69,1.67,1.67,0,0,1,.5-1.19,1.73,1.73,0,0,1,2.38,0,1.69,1.69,0,0,1-1.19,2.88Z"/><path class="cls-2" d="M33.25,8.56a1.69,1.69,0,0,1-1.69-1.69,1.71,1.71,0,0,1,.49-1.19,1.75,1.75,0,0,1,2.39,0,1.67,1.67,0,0,1,.5,1.19,1.69,1.69,0,0,1-1.69,1.69Z"/><path class="cls-2" d="M22,46.81a1.69,1.69,0,0,1-1.69-1.69,1.71,1.71,0,0,1,.49-1.19,1.75,1.75,0,0,1,2.39,0,1.67,1.67,0,0,1,.5,1.19A1.69,1.69,0,0,1,22,46.81Z"/><path class="cls-2" d="M22,43.81a1.69,1.69,0,0,1-1.69-1.69,1.72,1.72,0,0,1,.49-1.19,1.75,1.75,0,0,1,2.39,0A1.69,1.69,0,0,1,22,43.81Z"/><path class="cls-2" d="M18,47.31a1.75,1.75,0,0,1-1.2-.49,1.73,1.73,0,0,1-.49-1.2,1.71,1.71,0,0,1,.49-1.19,1.75,1.75,0,0,1,2.39,0,1.67,1.67,0,0,1,.5,1.19A1.69,1.69,0,0,1,18,47.31Z"/><path class="cls-2" d="M29.5,66.81a1.69,1.69,0,0,1-1.69-1.69,1.67,1.67,0,0,1,.5-1.19,1.73,1.73,0,0,1,2.38,0,1.69,1.69,0,0,1-1.19,2.88Z"/><path class="cls-2" d="M32.25,64.56a1.69,1.69,0,0,1-1.69-1.69,1.67,1.67,0,0,1,.5-1.19,1.73,1.73,0,0,1,2.38,0,1.67,1.67,0,0,1,.5,1.19,1.69,1.69,0,0,1-1.69,1.69Z"/><path class="cls-2" d="M32.5,66.81a1.69,1.69,0,0,1-1.69-1.69,1.71,1.71,0,0,1,.49-1.19,1.75,1.75,0,0,1,2.39,0,1.69,1.69,0,0,1-1.19,2.88Z"/><path class="cls-2" d="M4.75,79.81a1.69,1.69,0,0,1-1.69-1.69,1.67,1.67,0,0,1,.5-1.19,1.73,1.73,0,0,1,2.38,0,1.69,1.69,0,0,1-1.19,2.88Z"/><path class="cls-2" d="M7.5,79.06a1.69,1.69,0,0,1-1.2-2.88,1.75,1.75,0,0,1,2.39,0,1.67,1.67,0,0,1,.5,1.19A1.69,1.69,0,0,1,7.5,79.06Z"/><path class="cls-2" d="M6,42.81a1.69,1.69,0,0,1-1.2-2.88,1.75,1.75,0,0,1,2.39,0,1.67,1.67,0,0,1,.5,1.19A1.69,1.69,0,0,1,6,42.81Z"/><path class="cls-2" d="M5,44.31a1.69,1.69,0,0,1-1.2-2.88,1.75,1.75,0,0,1,2.39,0,1.67,1.67,0,0,1,.5,1.19A1.69,1.69,0,0,1,5,44.31Z"/><path class="cls-2" d="M60.75,61.81a1.69,1.69,0,0,1-1.69-1.69,1.67,1.67,0,0,1,.5-1.19,1.73,1.73,0,0,1,2.38,0,1.67,1.67,0,0,1,.5,1.19,1.69,1.69,0,0,1-1.69,1.69Z"/><path class="cls-2" d="M58.75,59.81a1.67,1.67,0,0,1-1.19-.5,1.66,1.66,0,0,1-.5-1.19,1.67,1.67,0,0,1,.5-1.19,1.73,1.73,0,0,1,2.38,0,1.67,1.67,0,0,1,.5,1.19,1.69,1.69,0,0,1-1.69,1.69Z"/><path class="cls-2" d="M58.25,62.31a1.68,1.68,0,0,1-1.19-2.88,1.73,1.73,0,0,1,2.38,0,1.69,1.69,0,0,1-1.19,2.88Z"/><path class="cls-2" d="M69.75,77.81a1.69,1.69,0,0,1-1.69-1.69,1.67,1.67,0,0,1,.5-1.19,1.73,1.73,0,0,1,2.38,0,1.67,1.67,0,0,1,.5,1.19,1.69,1.69,0,0,1-1.69,1.69Z"/><path class="cls-2" d="M70.25,80.06a1.68,1.68,0,0,1-1.19-2.88,1.73,1.73,0,0,1,2.38,0,1.67,1.67,0,0,1,.5,1.19,1.69,1.69,0,0,1-1.69,1.69Z"/><path class="cls-2" d="M72.25,78.56a1.69,1.69,0,0,1-1.69-1.69,1.67,1.67,0,0,1,.5-1.19,1.73,1.73,0,0,1,2.38,0,1.67,1.67,0,0,1,.5,1.19,1.69,1.69,0,0,1-1.69,1.69Z"/><path class="cls-2" d="M81.5,86.06a1.69,1.69,0,0,1-1.69-1.69,1.67,1.67,0,0,1,.5-1.19,1.73,1.73,0,0,1,2.38,0,1.67,1.67,0,0,1,.5,1.19,1.69,1.69,0,0,1-1.69,1.69Z"/><path class="cls-2" d="M63.5,89.31a1.69,1.69,0,0,1-1.69-1.69,1.67,1.67,0,0,1,.5-1.19,1.73,1.73,0,0,1,2.38,0,1.67,1.67,0,0,1,.5,1.19,1.69,1.69,0,0,1-1.69,1.69Z"/><path class="cls-2" d="M59.75,70.06a1.69,1.69,0,0,1-1.69-1.69,1.67,1.67,0,0,1,.5-1.19,1.73,1.73,0,0,1,2.38,0,1.67,1.67,0,0,1,.5,1.19,1.69,1.69,0,0,1-1.69,1.69Z"/><path class="cls-2" d="M82.5,30.81a1.69,1.69,0,0,1-1.69-1.69,1.67,1.67,0,0,1,.5-1.19,1.73,1.73,0,0,1,2.38,0,1.67,1.67,0,0,1,.5,1.19,1.69,1.69,0,0,1-1.69,1.69Z"/><path class="cls-2" d="M87.5,28.31a1.68,1.68,0,0,1-1.19-2.88,1.73,1.73,0,0,1,2.38,0,1.67,1.67,0,0,1,.5,1.19,1.69,1.69,0,0,1-1.69,1.69Z"/><path class="cls-2" d="M8.05,28.65a1.69,1.69,0,0,1-1.19-2.88,1.75,1.75,0,0,1,2.39,0A1.69,1.69,0,0,1,9.74,27a1.69,1.69,0,0,1-1.69,1.69Z"/><path class="cls-2" d="M9.3,28.9a1.67,1.67,0,0,1-1.19-.5,1.72,1.72,0,0,1-.5-1.19A1.7,1.7,0,0,1,8.11,26a1.75,1.75,0,0,1,2.39,0A1.69,1.69,0,0,1,11,27.21,1.69,1.69,0,0,1,9.3,28.9Z"/><path class="cls-2" d="M16.8,14.4a1.67,1.67,0,0,1-1.19-.5,1.69,1.69,0,0,1,0-2.38,1.75,1.75,0,0,1,2.39,0,1.69,1.69,0,0,1-1.2,2.88Z"/><path class="cls-2" d="M84.8,76.4a1.69,1.69,0,0,1-1.19-2.88,1.75,1.75,0,0,1,2.39,0,1.69,1.69,0,0,1,.49,1.19A1.69,1.69,0,0,1,84.8,76.4Z"/><path class="cls-2" d="M84.05,91.15a1.69,1.69,0,0,1-1.19-2.88,1.74,1.74,0,0,1,2.39,0,1.69,1.69,0,0,1,.49,1.19,1.69,1.69,0,0,1-1.69,1.69Z"/><path class="cls-2" d="M57.8,91.65a1.69,1.69,0,0,1-1.19-2.88,1.75,1.75,0,0,1,2.39,0A1.69,1.69,0,0,1,59.49,90a1.69,1.69,0,0,1-1.69,1.69Z"/><path class="cls-2" d="M54.6,9a1.68,1.68,0,0,1-1.19-2.88,1.73,1.73,0,0,1,2.38,0A1.69,1.69,0,0,1,54.6,9Z"/><path class="cls-2" d="M53.85,93a1.68,1.68,0,0,1-1.19-2.88,1.73,1.73,0,0,1,2.38,0,1.67,1.67,0,0,1,.5,1.19A1.69,1.69,0,0,1,53.85,93Z"/><path class="cls-2" d="M37.5,66.16A2.54,2.54,0,0,1,35,63.62a2.58,2.58,0,0,1,.74-1.79,2.62,2.62,0,0,1,3.58,0A2.58,2.58,0,0,1,40,63.62a2.54,2.54,0,0,1-2.53,2.54Z"/><path class="cls-2" d="M43.25,53.41a2.54,2.54,0,0,1-1.79-4.33,2.62,2.62,0,0,1,3.58,0,2.58,2.58,0,0,1,.74,1.79A2.54,2.54,0,0,1,45,52.66,2.57,2.57,0,0,1,43.25,53.41Z"/><path class="cls-2" d="M74.75,20.9A2.53,2.53,0,0,1,73,16.58a2.62,2.62,0,0,1,3.58,0,2.53,2.53,0,0,1-1.79,4.32Z"/><path class="cls-2" d="M.94,9.49A2.58,2.58,0,0,1-.85,8.75a2.56,2.56,0,0,1,0-3.58,2.62,2.62,0,0,1,3.58,0,2.51,2.51,0,0,1,0,3.58A2.54,2.54,0,0,1,.94,9.49Z"/><path class="cls-2" d="M.31,34.8a2.53,2.53,0,0,1-2.53-2.53,2.56,2.56,0,0,1,.74-1.79,2.62,2.62,0,0,1,3.58,0,2.56,2.56,0,0,1,.74,1.79,2.54,2.54,0,0,1-.74,1.79A2.54,2.54,0,0,1,.31,34.8Z"/><path class="cls-2" d="M-.64,52.84a2.56,2.56,0,0,1-1.79-.74,2.54,2.54,0,0,1-.74-1.79,2.54,2.54,0,0,1,.74-1.79,2.62,2.62,0,0,1,3.58,0,2.5,2.5,0,0,1,.74,1.79,2.5,2.5,0,0,1-.74,1.79A2.54,2.54,0,0,1-.64,52.84Z"/><path class="cls-2" d="M.94,62a2.58,2.58,0,0,1-1.79-.74,2.53,2.53,0,0,1-.73-1.79,2.57,2.57,0,0,1,.73-1.79,2.62,2.62,0,0,1,3.58,0,2.55,2.55,0,0,1,.75,1.79,2.51,2.51,0,0,1-.75,1.79A2.54,2.54,0,0,1,.94,62Z"/><path class="cls-2" d="M.94,70.24A2.56,2.56,0,0,1-.85,69.5a2.56,2.56,0,0,1,0-3.58,2.61,2.61,0,0,1,3.58,0,2.51,2.51,0,0,1,0,3.58A2.54,2.54,0,0,1,.94,70.24Z"/><path class="cls-2" d="M-1,81.07a2,2,0,0,1-1.39-.58,2,2,0,0,1-.57-1.39,2,2,0,0,1,.57-1.39,2.05,2.05,0,0,1,2.79,0A2,2,0,0,1,1,79.1a2,2,0,0,1-.57,1.39A2,2,0,0,1-1,81.07Z"/><path class="cls-2" d="M1.58,16.56a1.69,1.69,0,0,1-1.2-2.88,1.75,1.75,0,0,1,2.39,0,1.67,1.67,0,0,1,0,2.38A1.67,1.67,0,0,1,1.58,16.56Z"/><path class="cls-2" d="M0,27.32a1.7,1.7,0,0,1-1.2-.5,1.71,1.71,0,0,1-.49-1.19,1.73,1.73,0,0,1,.49-1.2,1.75,1.75,0,0,1,2.39,0,1.73,1.73,0,0,1,.49,1.2,1.72,1.72,0,0,1-.49,1.19A1.67,1.67,0,0,1,0,27.32Z"/><path class="cls-2" d="M-.32,46.3a1.71,1.71,0,0,1-1.19-.49,1.7,1.7,0,0,1-.5-1.2,1.71,1.71,0,0,1,.49-1.19,1.76,1.76,0,0,1,2.4,0,1.7,1.7,0,0,1,.48,1.19,1.72,1.72,0,0,1-.48,1.2A1.73,1.73,0,0,1-.32,46.3Z"/><path class="cls-2" d="M.31,77A1.69,1.69,0,0,1-1.38,75.3a1.69,1.69,0,0,1,.5-1.19,1.73,1.73,0,0,1,2.38,0A1.67,1.67,0,0,1,2,75.3a1.73,1.73,0,0,1-.49,1.2A1.73,1.73,0,0,1,.31,77Z"/><path class="cls-2" d="M-.64,25.31a2.56,2.56,0,0,1-1.79-.74,2.54,2.54,0,0,1-.74-1.79A2.56,2.56,0,0,1-2.43,21a2.62,2.62,0,0,1,3.58,0,2.5,2.5,0,0,1,.74,1.79,2.5,2.5,0,0,1-.74,1.79A2.54,2.54,0,0,1-.64,25.31Z"/><path class="cls-2" d="M-.64,10.12a2.56,2.56,0,0,1-1.79-.74,2.54,2.54,0,0,1-.74-1.79A2.56,2.56,0,0,1-2.43,5.8a2.62,2.62,0,0,1,3.58,0,2.5,2.5,0,0,1,.74,1.79,2.5,2.5,0,0,1-.74,1.79A2.54,2.54,0,0,1-.64,10.12Z"/><path class="cls-2" d="M0,8a1.74,1.74,0,0,1-1.2-.5,1.71,1.71,0,0,1-.49-1.19,1.73,1.73,0,0,1,.49-1.2,1.77,1.77,0,0,1,2.39,0,1.73,1.73,0,0,1,.49,1.2,1.71,1.71,0,0,1-.49,1.19A1.72,1.72,0,0,1,0,8Z"/><path class="cls-2" d="M0,37.44A1.73,1.73,0,0,1-1.2,37a1.73,1.73,0,0,1-.49-1.2,1.71,1.71,0,0,1,.49-1.19,1.75,1.75,0,0,1,2.39,0,1.71,1.71,0,0,1,.49,1.19A1.75,1.75,0,0,1,1.19,37,1.71,1.71,0,0,1,0,37.44Z"/><path class="cls-2" d="M-.95,39.34a1.7,1.7,0,0,1-1.2-.5,1.69,1.69,0,0,1-.49-1.19,1.71,1.71,0,0,1,.49-1.19,1.75,1.75,0,0,1,2.39,0,1.71,1.71,0,0,1,.49,1.19,1.69,1.69,0,0,1-.49,1.19A1.69,1.69,0,0,1-.95,39.34Z"/><path class="cls-2" d="M.94,42.82a1.69,1.69,0,0,1-1.19-.5,1.69,1.69,0,0,1,0-2.38,1.75,1.75,0,0,1,2.39,0,1.69,1.69,0,0,1,0,2.38A1.7,1.7,0,0,1,.94,42.82Z"/><path class="cls-2" d="M.38,55.5a.88.88,0,0,1-.63-.26.9.9,0,0,1-.26-.62A.87.87,0,0,1-.25,54,.91.91,0,0,1,1,54a.93.93,0,0,1,.26.62.9.9,0,0,1-.26.62A.85.85,0,0,1,.38,55.5Z"/><path class="cls-2" d="M9.49.07A2,2,0,0,1,8.1-.5a2,2,0,0,1-.58-1.4A2,2,0,0,1,8.1-3.29a2,2,0,0,1,2.78,0,2,2,0,0,1,.58,1.39,2,2,0,0,1-.58,1.4A2,2,0,0,1,9.49.07Z"/><path class="cls-2" d="M47.15.32a2.53,2.53,0,0,1-1.79-.74,2.51,2.51,0,0,1-.75-1.79A2.51,2.51,0,0,1,45.36-4a2.61,2.61,0,0,1,3.57,0,2.54,2.54,0,0,1,.74,1.79,2.54,2.54,0,0,1-.74,1.79A2.54,2.54,0,0,1,47.15.32Z"/><path class="cls-2" d="M32.91,1.27a2.59,2.59,0,0,1-1.8-.74,2.56,2.56,0,0,1-.74-1.79A2.54,2.54,0,0,1,31.11-3a2.62,2.62,0,0,1,3.58,0,2.51,2.51,0,0,1,.75,1.79A2.51,2.51,0,0,1,34.69.53,2.54,2.54,0,0,1,32.91,1.27Z"/><path class="cls-2" d="M75.62.64A2.56,2.56,0,0,1,73.83-.1a2.59,2.59,0,0,1-.74-1.8,2.52,2.52,0,0,1,.74-1.78,2.6,2.6,0,0,1,3.58,0,2.54,2.54,0,0,1,.74,1.78,2.59,2.59,0,0,1-.74,1.8A2.54,2.54,0,0,1,75.62.64Z"/><path class="cls-2" d="M7,.74A1.71,1.71,0,0,1,5.77.25a1.69,1.69,0,0,1-.5-1.19,1.73,1.73,0,0,1,.49-1.2,1.75,1.75,0,0,1,2.39,0,1.7,1.7,0,0,1,.5,1.2A1.69,1.69,0,0,1,8.15.25,1.72,1.72,0,0,1,7,.74Z"/><path class="cls-2" d="M50.31,2.32a1.73,1.73,0,0,1-1.2-.49A1.72,1.72,0,0,1,48.62.64a1.73,1.73,0,0,1,.49-1.2,1.76,1.76,0,0,1,2.39,0A1.7,1.7,0,0,1,52,.64a1.69,1.69,0,0,1-.5,1.19A1.71,1.71,0,0,1,50.31,2.32Z"/><path class="cls-2" d="M59.48.74A1.72,1.72,0,0,1,58.29.25a1.73,1.73,0,0,1-.49-1.2,1.72,1.72,0,0,1,.49-1.19,1.75,1.75,0,0,1,2.39,0,1.72,1.72,0,0,1,.49,1.19,1.73,1.73,0,0,1-.49,1.2A1.73,1.73,0,0,1,59.48.74Z"/><path class="cls-2" d="M67.71.74A1.71,1.71,0,0,1,66.52.25,1.69,1.69,0,0,1,66-.94a1.73,1.73,0,0,1,.49-1.2,1.76,1.76,0,0,1,2.39,0,1.7,1.7,0,0,1,.5,1.2A1.69,1.69,0,0,1,68.9.25,1.71,1.71,0,0,1,67.71.74Z"/><path class="cls-2" d="M79.1,2.64a1.67,1.67,0,0,1-1.19-.5A1.66,1.66,0,0,1,77.41,1a1.67,1.67,0,0,1,.5-1.19,1.73,1.73,0,0,1,2.38,0A1.67,1.67,0,0,1,80.79,1,1.69,1.69,0,0,1,79.1,2.64Z"/><path class="cls-2" d="M89.23,2.64A1.69,1.69,0,0,1,87.54,1,1.71,1.71,0,0,1,88-.24a1.75,1.75,0,0,1,2.39,0A1.71,1.71,0,0,1,90.91,1a1.69,1.69,0,0,1-1.68,1.69Z"/><path class="cls-2" d="M76.25,4.12a2.58,2.58,0,0,1-1.79-.74,2.57,2.57,0,0,1-.74-1.8A2.54,2.54,0,0,1,74.46-.2,2.61,2.61,0,0,1,78-.21a2.58,2.58,0,0,1,.74,1.79A2.59,2.59,0,0,1,78,3.38,2.54,2.54,0,0,1,76.25,4.12Z"/><path class="cls-2" d="M65.5,2.53a2.54,2.54,0,0,1-1.79-.74A2.54,2.54,0,0,1,63,0a2.56,2.56,0,0,1,.74-1.79,2.61,2.61,0,0,1,3.57,0A2.53,2.53,0,0,1,68,0a2.51,2.51,0,0,1-.75,1.79A2.54,2.54,0,0,1,65.5,2.53Z"/><path class="cls-2" d="M36.07,2a1.67,1.67,0,0,1-1.19-.5,1.67,1.67,0,0,1-.5-1.19,1.66,1.66,0,0,1,.5-1.19,1.73,1.73,0,0,1,2.38,0,1.66,1.66,0,0,1,.5,1.19,1.67,1.67,0,0,1-.5,1.19A1.67,1.67,0,0,1,36.07,2Z"/><path class="cls-2" d="M22.78,2.32a1.71,1.71,0,0,1-1.19-.49,1.69,1.69,0,0,1-.5-1.19,1.7,1.7,0,0,1,.5-1.2A1.73,1.73,0,0,1,24-.56a1.7,1.7,0,0,1,.5,1.2A1.69,1.69,0,0,1,24,1.83,1.71,1.71,0,0,1,22.78,2.32Z"/><path class="cls-2" d="M83.85.74a1.73,1.73,0,0,1-1.2-.49,1.71,1.71,0,0,1-.49-1.19,1.73,1.73,0,0,1,.49-1.2,1.75,1.75,0,0,1,2.39,0,1.73,1.73,0,0,1,.49,1.2A1.72,1.72,0,0,1,85,.25,1.72,1.72,0,0,1,83.85.74Z"/><path class="cls-2" d="M13.6,1.41a1.43,1.43,0,0,1-1-.41,1.43,1.43,0,0,1-.41-1,1.41,1.41,0,0,1,.41-1,1.45,1.45,0,0,1,2,0A1.41,1.41,0,0,1,15,0a1.43,1.43,0,0,1-.41,1A1.43,1.43,0,0,1,13.6,1.41Z"/><path class="cls-2" d="M84.05,0a1.69,1.69,0,0,1-1.19-.5,1.71,1.71,0,0,1-.49-1.19,1.71,1.71,0,0,1,.49-1.19,1.74,1.74,0,0,1,2.39,0,1.69,1.69,0,0,1,.49,1.19,1.71,1.71,0,0,1-.49,1.19A1.7,1.7,0,0,1,84.05,0Z"/><path class="cls-2" d="M57.8.53A1.69,1.69,0,0,1,56.61,0a1.71,1.71,0,0,1-.49-1.19,1.71,1.71,0,0,1,.49-1.19,1.75,1.75,0,0,1,2.39,0,1.69,1.69,0,0,1,.49,1.19A1.71,1.71,0,0,1,59,0,1.7,1.7,0,0,1,57.8.53Z"/><path class="cls-2" d="M53.85,1.87a1.71,1.71,0,0,1-1.19-.49,1.7,1.7,0,0,1-.5-1.2A1.69,1.69,0,0,1,52.66-1,1.73,1.73,0,0,1,55-1a1.67,1.67,0,0,1,.5,1.19,1.7,1.7,0,0,1-.5,1.2A1.71,1.71,0,0,1,53.85,1.87Z"/></pattern><symbol id="kt_button_hole_1" data-name="kt_button_hole_1" viewBox="0 0 16.1 7.68"><path id="path4844-7" class="cls-3" d="M.13,7.55H16V.13H.13Z"/><path id="path4846-3" class="cls-4" d="M15.4,3.84v-3H.7v3h0S1.76,3.25,15.4,3.84Z"/><path id="path4846-3-2" data-name="path4846-3" class="cls-5" d="M15.4,3.84v3H.7v-3h0S1.76,4.43,15.4,3.84Z"/></symbol><symbol id="kt_button_hole_2" data-name="kt_button_hole_2" viewBox="0 0 16.16 7.09"><use width="16.1" height="7.68" transform="translate(1.68) scale(0.9)" xlink:href="#kt_button_hole_1"/><path id="path701-1" class="cls-6" d="M6.86,3.57A3.4,3.4,0,0,1,3.52,6.91h0A3.41,3.41,0,0,1,.17,3.57h0A3.41,3.41,0,0,1,3.52.23h0A3.31,3.31,0,0,1,6.86,3.57Z"/><path id="path701-1-2" data-name="path701-1" class="cls-6" d="M5.27,3.57A1.79,1.79,0,0,1,3.52,5.33h0A1.79,1.79,0,0,1,1.76,3.57h0A1.79,1.79,0,0,1,3.52,1.82h0A1.74,1.74,0,0,1,5.27,3.57Z"/></symbol></defs><title>complex</title><g id="Layer_2" data-name="Layer 2"><g id="fill"><path class="cls-7" d="M208.62,100.12l-5.57,4.47a4.33,4.33,0,0,1,0,1.29c-.07,1.45-.63,4.51-.59,5.33.1,1.47-1.46,6.08-1.46,6.08l3.15,4.4-6.77-.76-6.57,13.48c-2,3.78-6,10.13-7.25,12l-2.45-1.25c4.93-9.69,10.26-20.94,13.42-29.94,2.72-7.77,7.08-24.63,7.4-35.08a20,20,0,0,0-.58-6.28c.49,1.07,1.69,3.77,3.06,7.13h0c1.93,7-1,18.27-1,18.27Z" transform="translate(0 -0.25)"/><path class="cls-8" d="M203.05,104.59l5.57-4.47-5.23-.83s2.92-11.26,1-18.27c.26.43,7.06,12.09,7.06,20.5,0,3.48-2.77,12-6.29,20.59l-1-.42-3.15-4.4s1.56-4.61,1.46-6.08c0-.82.52-3.88.59-5.33A4.33,4.33,0,0,0,203.05,104.59Z" transform="translate(0 -0.25)"/><path class="cls-8" d="M204.12,121.69l1,.42c-1.28,3.16-2.67,6.33-4.06,9.29a136.37,136.37,0,0,1-8.59,15.53l-9.32,0,.35-.55c1.21-1.89,5.24-8.24,7.25-12l6.57-13.48Z" transform="translate(0 -0.25)"/><path class="cls-8" d="M201.32,73.88a20,20,0,0,1,.58,6.28c-13.65,2.93-20.87,8.4-20.87,8.4s2-12.9,8.12-16.32,11.94,1.14,11.94,1.14Z" transform="translate(0 -0.25)"/><path class="cls-9" d="M201.09,73.23a5.49,5.49,0,0,1,.23.65l-.23-.5s-5.79-4.57-11.94-1.14S181,88.56,181,88.56a63.44,63.44,0,0,0-4.31,8.58c0-3.48-12.8-23.27-17.87-31,.5-7.13-1.12-25.29-1.12-25.29,1-14.15,14.65-29.92,14.65-29.92C174.26,9.07,201.09,73.23,201.09,73.23Z" transform="translate(0 -0.25)"/><path class="cls-8" d="M201.9,80.16c-.32,10.45-4.68,27.31-7.4,35.08-12.54-3.55-18.68-11.79-18.68-11.79a13.67,13.67,0,0,0,.27-3.36,7.57,7.57,0,0,1,.63-3A63.44,63.44,0,0,1,181,88.56S188.25,83.09,201.9,80.16Z" transform="translate(0 -0.25)"/><path class="cls-7" d="M192.5,146.93v0l-12,24.67-11-4.91s5.48-9.58,11.56-21.56l2.45,1.25-.35.55Z" transform="translate(0 -0.25)"/><path class="cls-10" d="M194.5,115.24c-3.16,9-8.49,20.25-13.42,29.94-6.08,12-11.56,21.56-11.56,21.56l-7.93-3.54-4.28-1.91,2.64-7.92,14-42s1.73-7.06,1.86-7.85c0,0,0,0,0-.07S182,111.69,194.5,115.24Z" transform="translate(0 -0.25)"/><path class="cls-11" d="M133.33,1.36l39,9.6s-13.65,15.77-14.65,29.92a16.78,16.78,0,0,0-4.55,11.43c0,7.1,3.63,10.78,3.63,10.78l.27.4h0c-.15,2.36-2.56,40.38-2.56,51.87,0,5.42,2.61,21,5.43,38l-2.64,7.92,4.28,1.91C164.41,180.28,167,197,167,204.41c0,0-28.5,8.09-52.18,8.09L115,67.24l17.57-20V28.1H121.89c3.87-4.66,6.65-7.76,8.49-11.18,2.05-3.78,3-8,3-15Z" transform="translate(0 -0.25)"/><path class="cls-8" d="M157.08,63.49l-.27-.4s-3.63-3.68-3.63-10.78a16.78,16.78,0,0,1,4.55-11.43s1.62,18.16,1.12,25.29c-.82-1.25-1.44-2.18-1.77-2.67Z" transform="translate(0 -0.25)"/><path class="cls-12" d="M105.51,40.25l4.25-4.81,6.48-7.34c6.36-7.74,10-11.3,11.7-17.51A40.29,40.29,0,0,0,129,.29l4.33,1.07v.52c0,7.09-.9,11.26-3,15-1.84,3.42-4.62,6.52-8.49,11.18l-1.32,1.59L91.8,62.26A2.62,2.62,0,0,0,91.15,64V212.5H86.82V65.64a11.19,11.19,0,0,1,2.8-7.4Z" transform="translate(0 -0.25)"/><path class="cls-13" d="M132.53,28.1V47.24L115,67.24l-.14,145.26H91.15V64a2.62,2.62,0,0,1,.65-1.73l28.77-32.57,1.32-1.59Z" transform="translate(0 -0.25)"/><path class="cls-12" d="M128.81.25l.19,0a40.29,40.29,0,0,1-1.06,10.3l-.23-.06c-4.81,3.64-12.38,6.84-24.13,6.84s-19.26-3.18-24.07-6.79a83.07,83.07,0,0,1-1-10.33s3.79,12.42,25.13,12.42S128.81.25,128.81.25Z" transform="translate(0 -0.25)"/><path class="cls-14" d="M127.71,10.53l.23.06c-1.66,6.21-5.34,9.77-11.7,17.51l-6.48,7.34-.25-.22a54.75,54.75,0,0,1-10.12-1.07C91,32.4,82.92,24,80.81,16.62a52.85,52.85,0,0,1-1.3-6c4.81,3.61,12.36,6.79,24.07,6.79S122.9,14.17,127.71,10.53Z" transform="translate(0 -0.25)"/><path class="cls-12" d="M79.51,10.58a52.85,52.85,0,0,0,1.3,6C82.92,24,91,32.4,99.39,34.15a54.75,54.75,0,0,0,10.12,1.07l.25.22-4.25,4.81a54.69,54.69,0,0,1-7.62-1c-9.67-2-18.94-11.68-21.35-20.14A84.69,84.69,0,0,1,74,1.33L78.54.25A83.07,83.07,0,0,0,79.51,10.58Z" transform="translate(0 -0.25)"/><path class="cls-15" d="M105.51,40.25l-15.89,18a11.19,11.19,0,0,0-2.8,7.4V211.51c-23.69,0-46.47-7.1-46.47-7.1,0-4.27.85-11.55,2.1-20.21L53,188.88l19.47-6.94,1.43-38.37-24.75-.92c2.06-12.51,3.66-23,3.66-27.28,0-11.59-2.47-50.2-2.58-51.93l.15-.2a45.3,45.3,0,0,0,1-9.14c0-4.86-1.57-10.43-3.72-18.29C46.54,32.1,36.4,14.67,34.26,10.67l.16,0L74,1.33a84.69,84.69,0,0,0,2.59,17.73C79,27.52,88.22,37.19,97.89,39.2A54.69,54.69,0,0,0,105.51,40.25Z" transform="translate(0 -0.25)"/><polygon class="cls-14" points="73.92 143.32 72.49 181.69 53.02 188.63 42.45 183.95 42.31 183.89 44.95 163.44 51.19 160.9 46.84 148.86 47.68 142.35 49.17 142.4 73.92 143.32"/><path class="cls-16" d="M46.84,149.11l4.35,12L45,163.69l-.36.15c-8.4-11.87-34.34-52.34-38-57.93C19,102.42,36,119.79,36.43,120.29h0Z" transform="translate(0 -0.25)"/><path class="cls-17" d="M50.25,63.44l-1,1.38A64,64,0,0,0,28.07,83.07c.27-.54,6.58-13.25.57-16.61S6.26,73.38,6.26,73.38l-.06,0C7.7,69.72,32.94,9.07,34.4,10.53l0,.1-.16,0c2.14,4,12.28,21.43,13.42,25.14,2.15,7.86,3.72,13.43,3.72,18.29a45.3,45.3,0,0,1-1,9.14Z" transform="translate(0 -0.25)"/><path class="cls-8" d="M49.24,64.82,33.84,85.88a84.54,84.54,0,0,0,1.57,30.61c-1.42-5.41-4.23-15.79-4.15-16.4.28-2.86-3.2-17-3.2-17s0,0,0,0A64,64,0,0,1,49.24,64.82Z" transform="translate(0 -0.25)"/><path class="cls-18" d="M44.59,163.84l-17.76,7.24S3.5,112.57,2.31,106-2.93,92.69,6.12,73.52a29.57,29.57,0,0,0-1.69,7.24c-1.19,9.53.11,22,2.19,25.15C10.25,111.5,36.19,152,44.59,163.84Z" transform="translate(0 -0.25)"/><path class="cls-8" d="M36.19,119.62l.24.67C36,119.79,19,102.42,6.62,105.91c-2.08-3.19-3.38-15.62-2.19-25.15,15.42-3,23.63,2.33,23.63,2.33s3.48,14.14,3.2,17c-.08.61,2.73,11,4.15,16.4,0,.1.05.21.08.32q.3,1.31.66,2.64A1,1,0,0,0,36.19,119.62Z" transform="translate(0 -0.25)"/><path class="cls-8" d="M28.64,66.46c6,3.36-.3,16.07-.57,16.61,0,0,0,0,0,0s-8.21-5.33-23.63-2.33a29.57,29.57,0,0,1,1.69-7.24,1.19,1.19,0,0,1,.08-.17l.06,0S22.5,63,28.64,66.46Z" transform="translate(0 -0.25)"/><rect class="cls-19" x="115.15" y="39.02" width="13.22" height="5.34"/><rect class="cls-19" x="94.98" y="64.51" width="13.22" height="5.34"/><rect class="cls-19" x="94.98" y="105.02" width="13.22" height="5.34"/><rect class="cls-19" x="94.98" y="145.3" width="13.22" height="5.34"/><rect class="cls-19" x="94.98" y="185.69" width="13.22" height="5.34"/></g><g id="detail"><path id="path5061" class="cls-20" d="M42.44,184.74c-1.24,8.62-2.09,15.88-2.09,20.13,0,0,22.79,7.11,46.47,7.11" transform="translate(0 -0.25)"/><path id="path5061-2" data-name="path5061" class="cls-20" d="M50.26,63.84s2.57,40.13,2.57,52c0,4.23-1.59,14.7-3.63,27.16" transform="translate(0 -0.25)"/><path id="path5061-3" data-name="path5061" class="cls-20" d="M78.54.71,34.26,11.14" transform="translate(0 -0.25)"/><path id="path5061-4" data-name="path5061" class="cls-20" d="M109.52,35.68A53.82,53.82,0,0,1,99.4,34.61C91,32.86,82.92,24.45,80.82,17.09A75.1,75.1,0,0,1,78.54.71" transform="translate(0 -0.25)"/><path id="path5061-5" data-name="path5061" class="cls-21" d="M105.81,40.73a57.66,57.66,0,0,1-7.92-1.06C88.22,37.65,79,28,76.54,19.53A84,84,0,0,1,74,1.47" transform="translate(0 -0.25)"/><path id="path5061-6" data-name="path5061" class="cls-22" d="M107.05,39.84a57.57,57.57,0,0,1-8.88-1.11c-9.43-2-18.48-11.4-20.84-19.66A83,83,0,0,1,74.8,1.47" transform="translate(0 -0.25)"/><path id="path74" class="cls-20" d="M175.82,103.92c0,.28-1.87,7.92-1.87,7.92l-16.63,49.92" transform="translate(0 -0.25)"/><path id="path74-2" data-name="path74" class="cls-20" d="M194.5,115.7c-12.54-3.54-18.68-11.78-18.68-11.78" transform="translate(0 -0.25)"/><path id="path66" class="cls-23" d="M176.72,97.61c0-4.34-19.91-34-19.91-34s-3.62-3.69-3.62-10.78a16.84,16.84,0,0,1,4.54-11.44c1-14.15,14.65-29.92,14.65-29.92" transform="translate(0 -0.25)"/><path id="path66-2" data-name="path66" class="cls-23" d="M172.38,11.42c1.89-1.88,28.71,62.28,28.71,62.28" transform="translate(0 -0.25)"/><path id="path70" class="cls-20" d="M50.4,63.7a45.17,45.17,0,0,0,1-9.14c0-4.86-1.57-10.43-3.71-18.28C46.55,32.56,36.4,15.14,34.26,11.14" transform="translate(0 -0.25)"/><path id="path70-2" data-name="path70" class="cls-20" d="M50.4,63.7,33.84,86.34a85.46,85.46,0,0,0,2.36,33.74" transform="translate(0 -0.25)"/><path id="path70-3" data-name="path70" class="cls-20" d="M34.4,11C32.9,9.49,6.12,74,6.12,74" transform="translate(0 -0.25)"/><path id="path76" class="cls-20" d="M36.2,120.08l10.54,29.19" transform="translate(0 -0.25)"/><path id="path76-2" data-name="path76" class="cls-20" d="M44.79,164.22l-18,7.32S3.51,113,2.31,106.5-2.93,93.16,6.12,74" transform="translate(0 -0.25)"/><path id="path94" class="cls-23" d="M78.54.71s3.79,12.43,25.14,12.43S128.82.71,128.82.71l.71.14" transform="translate(0 -0.25)"/><path id="path94-2" data-name="path94" class="cls-21" d="M79.49,11c4.81,3.63,12.37,6.82,24.09,6.82S122.9,14.63,127.71,11" transform="translate(0 -0.25)"/><path id="path94-3" data-name="path94" class="cls-24" d="M79.32,9.73C83.9,13.48,91.43,17,103.6,17c12.36,0,19.94-3.6,24.49-7.41" transform="translate(0 -0.25)"/><path id="path5141" class="cls-20" d="M161.6,163.67c2.82,17.07,5.41,33.75,5.41,41.2,0,0-28.5,8.09-52.19,8.09h-28" transform="translate(0 -0.25)"/><path id="path5141-2" data-name="path5141" class="cls-20" d="M157.1,63.84s-2.57,40.13-2.57,52c0,5.41,2.6,21,5.43,38" transform="translate(0 -0.25)"/><path id="path5141-3" data-name="path5141" class="cls-20" d="M172.38,11.42,129,.76c0,14.17-3.6,16.67-12.75,27.8h0L89.63,58.7a11.19,11.19,0,0,0-2.81,7.41V213" transform="translate(0 -0.25)"/><path id="path5141-4" data-name="path5141" class="cls-20" d="M91.15,212.78V64.45a2.6,2.6,0,0,1,.66-1.73l28.76-32.57h0c9.16-11.13,12.76-13.63,12.76-27.8V1.82" transform="translate(0 -0.25)"/><path id="path5141-5" data-name="path5141" class="cls-22" d="M132.32,1.86c0,14.17-3.61,16.67-12.76,27.81h0L91.81,61.08a6.66,6.66,0,0,0-1.67,4.42V212.29" transform="translate(0 -0.25)"/><path id="path5141-6" data-name="path5141" class="cls-23" d="M121.89,28.56h10.64V47.7L115,67.7,114.82,213" transform="translate(0 -0.25)"/><path id="path593-9" class="cls-25" d="M71.47,2.32s3.2,11.51,4.64,17.79c1.39,6.55,3.76,12.07,4.68,16.53,1.44,3.65,4.48,16.24,4.48,16.24L73.11,70.7H51l0-6.57a26.1,26.1,0,0,0,2.39-9.8c0-4.86-1.21-9.63-3.36-17.49-1.14-3.71-4.63-9.13-6.77-13.13-2-3.72-5.48-10.67-7-13.1L46,7.85l25.5-5.53" transform="translate(0 -0.25)"/><path id="path679-4" class="cls-23" d="M204.38,81.48c-1.77-4.38-3.29-7.64-3.29-7.64s-5.79-4.57-11.93-1.14S181,89,181,89s-5.22,8.67-4.94,11.52a13.36,13.36,0,0,1-.28,3.43" transform="translate(0 -0.25)"/><path id="path679-4-2" data-name="path679-4" class="cls-23" d="M192.5,147.45l-12,24.66-23.2-10.35" transform="translate(0 -0.25)"/><path id="path30864" class="cls-25" d="M34.58,62.81l15.15-4.14s-.47-10-1.69-15-12.78-25.78-15-29.53a.31.31,0,0,0-.54,0c-1.12,2.37-5.88,13.38-7,15.88a1.23,1.23,0,0,0,0,1C27,34,34.29,49.83,34.58,62.81Z" transform="translate(0 -0.25)"/><path id="path30896" class="cls-25" d="M192.5,147.39l-9.31.06s5.21-8.09,7.6-12.58l6.56-13.47,6.77.75L201,117.76s1.56-4.61,1.46-6.09c0-.82.53-3.87.59-5.32a4.23,4.23,0,0,0,0-1.3l5.56-4.47-5.22-.82s2.91-11.28,1-18.28c0,0,7.06,11.94,7.06,20.5,0,4.75-5.16,18.85-10.35,29.88A133.52,133.52,0,0,1,192.5,147.39Z" transform="translate(0 -0.25)"/><use width="16.16" height="7.09" transform="translate(112.85 38.71)" xlink:href="#kt_button_hole_2"/><use width="16.16" height="7.09" transform="translate(92.67 64.22)" xlink:href="#kt_button_hole_2"/><use width="16.16" height="7.09" transform="translate(92.67 104.61)" xlink:href="#kt_button_hole_2"/><use width="16.16" height="7.09" transform="translate(92.67 145)" xlink:href="#kt_button_hole_2"/><use width="16.16" height="7.09" transform="translate(92.67 185.39)" xlink:href="#kt_button_hole_2"/><path class="cls-26" d="M157.73,41.34s1.66,18.67,1.11,25.58" transform="translate(0 -0.25)"/><path class="cls-23" d="M201.09,73.7c3.07,7.23-3.1,32.06-6.59,42-7.05,20.13-25,51.51-25,51.51" transform="translate(0 -0.25)"/><path class="cls-27" d="M181,89s7.23-5.47,20.87-8.4" transform="translate(0 -0.25)"/><path id="path74-3" data-name="path74" class="cls-20" d="M6.62,106.38c12.54-3.55,29.82,14.38,29.82,14.38" transform="translate(0 -0.25)"/><path id="path679-4-3" data-name="path679-4" class="cls-23" d="M6.27,73.84S22.5,63.5,28.64,66.92s-.58,16.64-.58,16.64,3.49,14.14,3.2,17c-.09.8,4.7,18.15,4.94,19.53" transform="translate(0 -0.25)"/><line class="cls-28" x1="73.21" y1="143.95" x2="73.16" y2="145.45"/><line class="cls-29" x1="73.09" y1="147.32" x2="71.9" y2="179.24"/><polyline class="cls-28" points="71.87 180.18 71.81 181.68 70.4 182.17"/><line class="cls-30" x1="68.52" y1="182.83" x2="55.41" y2="187.44"/><line class="cls-28" x1="54.47" y1="187.77" x2="53.06" y2="188.27"/><line class="cls-28" x1="46.97" y1="146.71" x2="48.47" y2="146.77"/><line class="cls-31" x1="50.63" y1="146.85" x2="71.2" y2="147.61"/><line class="cls-28" x1="72.28" y1="147.65" x2="73.78" y2="147.7"/><line class="cls-28" x1="53.06" y1="188.27" x2="51.68" y2="187.67"/><line class="cls-32" x1="49.44" y1="186.71" x2="44.97" y2="184.79"/><line class="cls-28" x1="43.85" y1="184.31" x2="42.47" y2="183.72"/><path class="cls-20" d="M42.44,184.74c3.28-31.63,5.22-41.68,5.22-41.68l26.26,1L72.5,182.41,53,189.35l-10.42-4.61" transform="translate(0 -0.25)"/><path class="cls-27" d="M4.43,81.22c15.42-3,23.63,2.34,23.63,2.34C36.2,72.81,43.91,67.93,48.57,65.37" transform="translate(0 -0.25)"/><path class="cls-20" d="M44.59,164.3c-8.4-11.87-34.34-52.34-38-57.92C3.94,102.26,2.56,82.8,6.12,74" transform="translate(0 -0.25)"/><polygon class="cls-2" points="91.08 63.55 88.71 61.71 91.22 63.35 91.08 63.55"/></g></g></svg>
