<svg xmlns="http://www.w3.org/2000/svg" viewBox="0 0 212.07 213.35"><defs><style>.cls-1{fill:#f4f4f4;}.cls-2{fill:#9555a5;}.cls-3{fill:#f2f2f2;}.cls-4{fill:#f7f7f7;}.cls-5{fill:#e6e6e6;}.cls-6{fill:#999;}.cls-7{fill:#b3b3b3;}.cls-8{fill:gray;}.cls-9{fill:#666;}.cls-10{fill:#1a1a1a;}.cls-11{fill:#4d4d4d;}.cls-12{fill:#333;}.cls-13{fill:none;}.cls-13,.cls-14{stroke:#231f20;stroke-miterlimit:10;}.cls-14{fill:#ccc;}</style></defs><title>simple</title><g id="Layer_2" data-name="Layer 2"><g id="detail"><path class="cls-1" d="M208.75,100.47l-5.57,4.47a4.33,4.33,0,0,1,0,1.29c-.07,1.45-.63,4.51-.59,5.33.1,1.47-1.46,6.08-1.46,6.08l3.15,4.4-6.77-.76-6.57,13.48c-2,3.78-6,10.13-7.25,12l-2.45-1.25c4.93-9.69,10.26-20.94,13.42-29.94,2.72-7.77,7.08-24.63,7.4-35.08a20,20,0,0,0-.58-6.28c.49,1.07,1.69,3.77,3.06,7.13h0c1.93,7-1,18.27-1,18.27Z"/><path class="cls-2" d="M203.18,104.94l5.57-4.47-5.23-.83s2.92-11.26,1-18.27c.26.43,7.06,12.09,7.06,20.5,0,3.48-2.77,12-6.29,20.59l-1-.42-3.15-4.4s1.56-4.61,1.46-6.08c0-.82.52-3.88.59-5.33A4.33,4.33,0,0,0,203.18,104.94Z"/><path class="cls-2" d="M204.25,122l1,.42c-1.28,3.16-2.67,6.33-4.06,9.29a136.37,136.37,0,0,1-8.59,15.53l-9.32.05.35-.55c1.21-1.89,5.24-8.24,7.25-12l6.57-13.48Z"/><path class="cls-2" d="M201.45,74.23a20,20,0,0,1,.58,6.28c-13.65,2.93-20.87,8.4-20.87,8.4s2-12.9,8.12-16.32,11.94,1.14,11.94,1.14Z"/><path class="cls-3" d="M201.22,73.58a5.49,5.49,0,0,1,.23.65l-.23-.5s-5.79-4.57-11.94-1.14-8.12,16.32-8.12,16.32a63.44,63.44,0,0,0-4.31,8.58c0-3.48-12.8-23.27-17.87-31,.5-7.13-1.12-25.29-1.12-25.29,1-14.15,14.65-29.92,14.65-29.92C174.39,9.42,201.22,73.58,201.22,73.58Z"/><path class="cls-2" d="M202,80.51c-.32,10.45-4.68,27.31-7.4,35.08C182.09,112,176,103.8,176,103.8a13.67,13.67,0,0,0,.27-3.36,7.57,7.57,0,0,1,.63-3,63.44,63.44,0,0,1,4.31-8.58S188.38,83.44,202,80.51Z"/><path class="cls-1" d="M192.63,147.28v.05l-12,24.67-11-4.91s5.48-9.58,11.56-21.56l2.45,1.25-.35.55Z"/><path class="cls-4" d="M194.63,115.59c-3.16,9-8.49,20.25-13.42,29.94-6.08,12-11.56,21.56-11.56,21.56l-7.93-3.54-4.28-1.91,2.64-7.92,14-42s1.73-7.06,1.86-7.85c0,0,0-.05,0-.07S182.09,112,194.63,115.59Z"/><path class="cls-5" d="M133.46,1.71l39,9.6s-13.65,15.77-14.65,29.92a16.78,16.78,0,0,0-4.55,11.43c0,7.1,3.63,10.78,3.63,10.78l.27.4h0c-.15,2.36-2.56,40.38-2.56,51.87,0,5.42,2.61,21.05,5.43,38l-2.64,7.92,4.28,1.91c2.82,17.08,5.41,33.76,5.41,41.21,0,0-28.5,8.09-52.18,8.09l.14-145.26,17.57-20V28.45H122c3.87-4.66,6.65-7.76,8.49-11.18,2.05-3.78,3-7.95,3-15Z"/><path class="cls-2" d="M157.21,63.84l-.27-.4s-3.63-3.68-3.63-10.78a16.78,16.78,0,0,1,4.55-11.43s1.62,18.16,1.12,25.29c-.82-1.25-1.44-2.18-1.77-2.67Z"/><path class="cls-6" d="M105.64,40.6l4.25-4.81,6.48-7.34c6.36-7.74,10-11.3,11.7-17.51A40.29,40.29,0,0,0,129.13.64l4.33,1.07v.52c0,7.09-.9,11.26-3,15-1.84,3.42-4.62,6.52-8.49,11.18L120.7,30,91.93,62.61a2.62,2.62,0,0,0-.65,1.73V212.85H87V66a11.19,11.19,0,0,1,2.8-7.4Z"/><path class="cls-7" d="M132.66,28.45V47.59l-17.57,20L115,212.85H91.28V64.34a2.62,2.62,0,0,1,.65-1.73L120.7,30,122,28.45Z"/><path class="cls-6" d="M128.94.6l.19,0a40.29,40.29,0,0,1-1.06,10.3l-.23-.06c-4.81,3.64-12.38,6.84-24.13,6.84s-19.26-3.18-24.07-6.79A83.07,83.07,0,0,1,78.67.6S82.46,13,103.8,13,128.94.6,128.94.6Z"/><path class="cls-8" d="M127.84,10.88l.23.06c-1.66,6.21-5.34,9.77-11.7,17.51l-6.48,7.34-.25-.22A54.75,54.75,0,0,1,99.52,34.5C91.11,32.75,83.05,24.33,80.94,17a52.85,52.85,0,0,1-1.3-6c4.81,3.61,12.36,6.79,24.07,6.79S123,14.52,127.84,10.88Z"/><path class="cls-6" d="M79.64,10.93a52.85,52.85,0,0,0,1.3,6c2.11,7.36,10.17,15.78,18.58,17.53a54.75,54.75,0,0,0,10.12,1.07l.25.22-4.25,4.81A54.69,54.69,0,0,1,98,39.55c-9.67-2-18.94-11.68-21.35-20.14A84.69,84.69,0,0,1,74.08,1.68L78.67.6A83.07,83.07,0,0,0,79.64,10.93Z"/><path class="cls-9" d="M105.64,40.6l-15.89,18A11.19,11.19,0,0,0,87,66V211.86c-23.69,0-46.47-7.1-46.47-7.1,0-4.27.85-11.55,2.1-20.21l10.57,4.68,19.47-6.94,1.43-38.37L49.3,143C51.36,130.49,53,120,53,115.72c0-11.59-2.47-50.2-2.58-51.93l.15-.2a45.3,45.3,0,0,0,1-9.14c0-4.86-1.57-10.43-3.72-18.29C46.67,32.45,36.53,15,34.39,11l.16,0,39.53-9.3a84.69,84.69,0,0,0,2.59,17.73C79.08,27.87,88.35,37.54,98,39.55A54.69,54.69,0,0,0,105.64,40.6Z"/><polygon class="cls-8" points="74.05 143.92 72.62 182.29 53.15 189.23 42.58 184.55 42.44 184.49 45.08 164.04 51.32 161.5 46.97 149.46 47.81 142.95 49.3 143 74.05 143.92"/><path class="cls-10" d="M47,149.46l4.35,12L45.08,164l-.36.15c-8.4-11.87-34.34-52.34-38-57.93,12.36-3.49,29.33,13.88,29.81,14.38h0Z"/><path class="cls-11" d="M50.38,63.79l-1,1.38A64,64,0,0,0,28.2,83.42c.27-.54,6.58-13.25.57-16.61S6.39,73.73,6.39,73.73l-.06,0c1.5-3.63,26.74-64.28,28.2-62.82l0,.1-.16,0c2.14,4,12.28,21.43,13.42,25.14C50,44,51.53,49.59,51.53,54.45a45.3,45.3,0,0,1-1,9.14Z"/><path class="cls-2" d="M49.37,65.17,34,86.23a84.54,84.54,0,0,0,1.57,30.61c-1.42-5.41-4.23-15.79-4.15-16.4.28-2.86-3.2-17-3.2-17s0,0,0,0A64,64,0,0,1,49.37,65.17Z"/><path class="cls-12" d="M44.72,164.19,27,171.43S3.63,112.92,2.44,106.38-2.8,93,6.25,73.87a29.57,29.57,0,0,0-1.69,7.24c-1.19,9.53.11,22,2.19,25.15C10.38,111.85,36.32,152.32,44.72,164.19Z"/><path class="cls-2" d="M36.32,120l.24.67c-.48-.5-17.45-17.87-29.81-14.38-2.08-3.19-3.38-15.62-2.19-25.15,15.42-3,23.63,2.33,23.63,2.33s3.48,14.14,3.2,17c-.08.61,2.73,11,4.15,16.4,0,.1.05.21.08.32q.3,1.31.66,2.64A1,1,0,0,0,36.32,120Z"/><path class="cls-2" d="M28.77,66.81c6,3.36-.3,16.07-.57,16.61,0,0,0,0,0,0S20,78.11,4.56,81.11a29.57,29.57,0,0,1,1.69-7.24,1.19,1.19,0,0,1,.08-.17l.06,0S22.63,63.38,28.77,66.81Z"/><path class="cls-13" d="M42.58,184.55c-1.25,8.66-2.1,15.94-2.1,20.21,0,0,22.78,7.1,46.47,7.1"/><path class="cls-13" d="M50.38,63.73v.06c.11,1.73,2.58,40.34,2.58,51.93,0,4.25-1.6,14.77-3.66,27.28"/><polyline class="cls-13" points="78.67 0.6 74.08 1.68 34.55 10.98 34.39 11.02"/><path class="cls-13" d="M109.64,35.57A54.75,54.75,0,0,1,99.52,34.5C91.11,32.75,83.05,24.33,80.94,17a52.85,52.85,0,0,1-1.3-6A83.07,83.07,0,0,1,78.67.6"/><path class="cls-13" d="M105.94,40.62l-.3,0A54.69,54.69,0,0,1,98,39.55c-9.67-2-18.94-11.68-21.35-20.14A84.69,84.69,0,0,1,74.08,1.68c0-.12,0-.22,0-.32"/><path class="cls-13" d="M175.94,103.87c-.13.79-1.86,7.85-1.86,7.85l-14,42-2.64,7.92"/><path class="cls-13" d="M194.63,115.59C182.09,112,176,103.8,176,103.8"/><path class="cls-13" d="M157.21,63.84l-.27-.4s-3.63-3.68-3.63-10.78a16.78,16.78,0,0,1,4.55-11.43c1-14.15,14.65-29.92,14.65-29.92"/><path class="cls-13" d="M176.85,97.49c0-3.48-12.8-23.27-17.87-31-.82-1.25-1.44-2.18-1.77-2.67"/><path class="cls-13" d="M172.51,11.31c1.88-1.89,28.71,62.27,28.71,62.27"/><path class="cls-13" d="M50.53,63.59a45.3,45.3,0,0,0,1-9.14c0-4.86-1.57-10.43-3.72-18.29C46.67,32.45,36.53,15,34.39,11"/><path class="cls-13" d="M35.62,117.16q.3,1.31.66,2.64a1,1,0,0,0,0,.17"/><path class="cls-13" d="M50.53,63.59l-.15.2-1,1.38L34,86.23a84.54,84.54,0,0,0,1.57,30.61"/><path class="cls-13" d="M34.53,10.88C33.07,9.42,7.83,70.07,6.33,73.7a1.19,1.19,0,0,0-.08.17"/><path class="cls-13" d="M36.57,120.65,47,149.46l4.35,12L45.08,164l-.36.15L27,171.43S3.63,112.92,2.44,106.38-2.8,93,6.25,73.87"/><line class="cls-13" x1="36.32" y1="119.97" x2="36.56" y2="120.64"/><path class="cls-13" d="M78.67.6S82.46,13,103.8,13,128.94.6,128.94.6l.19,0,.53.1"/><path class="cls-13" d="M79.61,10.91l0,0c4.81,3.61,12.36,6.79,24.07,6.79s19.32-3.2,24.13-6.84"/><path class="cls-13" d="M161.72,163.55c2.82,17.08,5.41,33.76,5.41,41.21,0,0-28.5,8.09-52.18,8.09H87"/><path class="cls-13" d="M157.22,63.73a.87.87,0,0,1,0,.11h0c-.15,2.36-2.56,40.38-2.56,51.87,0,5.42,2.61,21.05,5.43,38"/><path class="cls-13" d="M172.51,11.31l-39-9.6L129.13.64a40.29,40.29,0,0,1-1.06,10.3c-1.66,6.21-5.34,9.77-11.7,17.51l-6.48,7.34-4.25,4.81-15.89,18A11.19,11.19,0,0,0,87,66V212.85"/><path class="cls-13" d="M91.28,212.66V64.34a2.62,2.62,0,0,1,.65-1.73L120.7,30,122,28.45c3.87-4.66,6.65-7.76,8.49-11.18,2.05-3.78,3-7.95,3-15V1.71"/><polyline class="cls-13" points="122.02 28.45 132.66 28.45 132.66 47.59 115.09 67.59 114.95 212.85"/><path class="cls-13" d="M201.45,74.23l-.23-.5s-5.79-4.57-11.94-1.14-8.12,16.32-8.12,16.32a63.44,63.44,0,0,0-4.31,8.58,7.57,7.57,0,0,0-.63,3,13.67,13.67,0,0,1-.27,3.36s0,0,0,.07"/><polyline class="cls-13" points="192.63 147.33 180.65 172 169.65 167.09 161.72 163.55 157.44 161.64"/><path class="cls-13" d="M157.86,41.23s1.62,18.16,1.12,25.29c0,.1,0,.2,0,.29"/><path class="cls-13" d="M201.22,73.58a5.49,5.49,0,0,1,.23.65,20,20,0,0,1,.58,6.28c-.32,10.45-4.68,27.31-7.4,35.08-3.16,9-8.49,20.25-13.42,29.94-6.08,12-11.56,21.56-11.56,21.56"/><path class="cls-13" d="M181.16,88.91s7.22-5.47,20.87-8.4"/><path class="cls-13" d="M6.75,106.26c12.36-3.49,29.33,13.88,29.81,14.38h0"/><path class="cls-13" d="M28.19,83.44s3.48,14.14,3.2,17c-.08.61,2.73,11,4.15,16.4,0,.1.05.21.08.32.33,1.25.57,2.2.66,2.64,0,.07,0,.13,0,.17"/><path class="cls-13" d="M6.39,73.73s16.24-10.35,22.38-6.92-.3,16.07-.57,16.61"/><polyline class="cls-13" points="45.08 164.04 42.44 184.49 42.58 184.55 53.15 189.23 72.62 182.29 74.05 143.92 49.3 143 47.81 142.95 46.97 149.46"/><path class="cls-13" d="M4.56,81.11c15.42-3,23.63,2.33,23.63,2.33s0,0,0,0A64,64,0,0,1,49.37,65.17"/><path class="cls-13" d="M44.72,164.19c-8.4-11.87-34.34-52.34-38-57.93-2.08-3.19-3.38-15.62-2.19-25.15a29.57,29.57,0,0,1,1.69-7.24"/><path class="cls-13" d="M201.45,74.23c.49,1.07,1.69,3.77,3.06,7.13h0c.26.43,7.06,12.09,7.06,20.5,0,3.48-2.77,12-6.29,20.59-1.28,3.16-2.67,6.33-4.06,9.29a136.37,136.37,0,0,1-8.59,15.53l-9.32.05.35-.55c1.21-1.89,5.24-8.24,7.25-12l6.57-13.48,6.77.76-3.15-4.4s1.56-4.61,1.46-6.08c0-.82.52-3.88.59-5.33a4.33,4.33,0,0,0,0-1.29l5.57-4.47-5.23-.83s2.92-11.26,1-18.27"/><rect class="cls-14" x="115.27" y="39.62" width="13.22" height="5.34"/><rect class="cls-14" x="95.1" y="65.11" width="13.22" height="5.34"/><rect class="cls-14" x="95.1" y="105.62" width="13.22" height="5.34"/><rect class="cls-14" x="95.1" y="145.89" width="13.22" height="5.34"/><rect class="cls-14" x="95.1" y="186.29" width="13.22" height="5.34"/></g></g></svg>
